<?xml version="1.0" encoding="UTF-8" standalone="no"?>
<svg
   xmlns:dc="http://purl.org/dc/elements/1.1/"
   xmlns:cc="http://creativecommons.org/ns#"
   xmlns:rdf="http://www.w3.org/1999/02/22-rdf-syntax-ns#"
   xmlns:svg="http://www.w3.org/2000/svg"
   xmlns="http://www.w3.org/2000/svg"
   viewBox="0 0 1280.0667 587.66669"
   height="587.66669"
   width="1280.0667"
   xml:space="preserve"
   id="svg2"
   version="1.1"><metadata
     id="metadata8"><rdf:RDF><cc:Work
         rdf:about=""><dc:format>image/svg+xml</dc:format><dc:type
           rdf:resource="http://purl.org/dc/dcmitype/StillImage" /></cc:Work></rdf:RDF></metadata><defs
     id="defs6"><clipPath
       id="clipPath20"
       clipPathUnits="userSpaceOnUse"><path
         style="clip-rule:evenodd"
         id="path18"
         d="M 0,0 H 960.05 V 440.75 H 0 Z" /></clipPath></defs><g
     transform="matrix(1.3333333,0,0,-1.3333333,0,587.66667)"
     id="g10"><g
       transform="matrix(1,0,0,-1,0,440.75)"
       id="g12"><g
         id="g14"><g
           clip-path="url(#clipPath20)"
           id="g16"><g
             id="g22"><path
               id="path24"
               style="fill:#ffffff;fill-opacity:1;fill-rule:evenodd;stroke:none"
               d="M 0,0 H 960 V 440.76 H 0 Z" /></g><g
             id="g26"><path
               id="path28"
               style="fill:#4874cb;fill-opacity:1;fill-rule:nonzero;stroke:none"
               d="m 936.222,203.69 0.155,0.025 0.139,0.071 0.111,0.11 0.071,0.14 0.024,0.154 v 203.029 l -0.024,0.154 -0.071,0.14 -0.111,0.11 -0.139,0.071 -0.155,0.025 H 430.629 l -0.155,-0.025 -0.139,-0.071 -0.111,-0.11 -0.071,-0.14 -0.024,-0.154 V 204.19 l 0.024,-0.154 0.071,-0.14 0.111,-0.11 0.139,-0.071 0.155,-0.025 z m -505.593,1 0.5,-0.5 v 203.029 l -0.5,-0.5 h 505.593 l -0.5,0.5 V 204.19 l 0.5,0.5 H 430.629" /></g><g
             id="g30"><text
               id="text34"
               style="font-variant:normal;font-weight:bold;font-stretch:normal;font-size:18px;font-family:Arial;-inkscape-font-specification:Arial-BoldMT;writing-mode:lr-tb;fill:#ad7fa8;fill-opacity:1;fill-rule:nonzero;stroke:none"
               transform="translate(437.829,224.89)"><tspan
                 id="tspan32"
                 y="0"
                 x="0 11 24">TU </tspan></text>
</g><g
             id="g36"><text
               id="text40"
               style="font-variant:normal;font-weight:normal;font-stretch:normal;font-size:18px;font-family:Arial;-inkscape-font-specification:ArialMT;writing-mode:lr-tb;fill:#000000;fill-opacity:1;fill-rule:nonzero;stroke:none"
               transform="translate(466.829,224.89)"><tspan
                 id="tspan38"
                 y="0"
                 x="0 6 11 16 21">- ...</tspan></text>
</g><g
             id="g42"><text
               id="text46"
               style="font-variant:normal;font-weight:normal;font-stretch:normal;font-size:18px;font-family:Arial;-inkscape-font-specification:ArialMT;writing-mode:lr-tb;fill:#000000;fill-opacity:1;fill-rule:nonzero;stroke:none"
               transform="translate(442.829,246.49)"><tspan
                 id="tspan44"
                 y="0"
                 x="0 6 12">`- </tspan></text>
</g><g
             id="g48"><text
               id="text52"
               style="font-variant:normal;font-weight:bold;font-stretch:normal;font-size:18px;font-family:Arial;-inkscape-font-specification:Arial-BoldMT;writing-mode:lr-tb;fill:#ad7fa8;fill-opacity:1;fill-rule:nonzero;stroke:none"
               transform="translate(459.829,246.49)"><tspan
                 id="tspan50"
                 y="0"
                 x="0 11 22 33 43 49 54 65 76 89 99 109 114">FunctionDecl </tspan></text>
</g><g
             id="g54"><text
               id="text58"
               style="font-variant:normal;font-weight:normal;font-stretch:normal;font-size:18px;font-family:Arial;-inkscape-font-specification:ArialMT;writing-mode:lr-tb;fill:#000000;fill-opacity:1;fill-rule:nonzero;stroke:none"
               transform="translate(578.829,246.49)"><tspan
                 id="tspan56"
                 y="0"
                 x="0 10 20 29 33 37 47 57 67 80 90 100 114 124 134 144">__cling_Un1Qu30 </tspan></text>
</g><g
             id="g60"><text
               id="text64"
               style="font-variant:normal;font-weight:normal;font-stretch:normal;font-size:18px;font-family:Arial;-inkscape-font-specification:ArialMT;writing-mode:lr-tb;fill:#204a87;fill-opacity:1;fill-rule:nonzero;stroke:none"
               transform="translate(727.829,246.49)"><tspan
                 id="tspan62"
                 y="0"
                 x="0 3.45 12.45 22.450001 26.450001 36.450001 41.450001 47.450001 52.450001 61.450001 71.449997 75.449997 85.449997">'void ( void </tspan></text>
</g><g
             id="g66"><text
               id="text70"
               style="font-variant:normal;font-weight:normal;font-stretch:normal;font-size:18px;font-family:Arial;-inkscape-font-specification:ArialMT;writing-mode:lr-tb;fill:#204a87;fill-opacity:1;fill-rule:nonzero;stroke:none"
               transform="translate(818.279,246.49)"><tspan
                 id="tspan68"
                 y="0"
                 x="0">*</tspan></text>
</g><g
             id="g72"><text
               id="text76"
               style="font-variant:normal;font-weight:normal;font-stretch:normal;font-size:18px;font-family:Arial;-inkscape-font-specification:ArialMT;writing-mode:lr-tb;fill:#204a87;fill-opacity:1;fill-rule:nonzero;stroke:none"
               transform="translate(825.279,246.49)"><tspan
                 id="tspan74"
                 y="0"
                 x="0 6 11">) '</tspan></text>
</g><g
             id="g78"><text
               id="text82"
               style="font-variant:normal;font-weight:normal;font-stretch:normal;font-size:18px;font-family:Arial;-inkscape-font-specification:ArialMT;writing-mode:lr-tb;fill:#000000;fill-opacity:1;fill-rule:nonzero;stroke:none"
               transform="translate(462.829,268.09)"><tspan
                 id="tspan80"
                 y="0"
                 x="0 4.6999998 10.7">|- </tspan></text>
</g><g
             id="g84"><text
               id="text88"
               style="font-variant:normal;font-weight:bold;font-stretch:normal;font-size:18px;font-family:Arial;-inkscape-font-specification:Arial-BoldMT;writing-mode:lr-tb;fill:#ad7fa8;fill-opacity:1;fill-rule:nonzero;stroke:none"
               transform="translate(478.529,268.09)"><tspan
                 id="tspan86"
                 y="0"
                 x="0 12 22 29 45 56 66 73 86 96 106 111">ParmVarDecl </tspan></text>
</g><g
             id="g90"><text
               id="text94"
               style="font-variant:normal;font-weight:normal;font-stretch:normal;font-size:18px;font-family:Arial;-inkscape-font-specification:ArialMT;writing-mode:lr-tb;fill:#000000;fill-opacity:1;fill-rule:nonzero;stroke:none"
               transform="translate(594.529,268.09)"><tspan
                 id="tspan92"
                 y="0"
                 x="0 9 19 32 36 40 50 60 70.650002 80.650002 84.650002 94.650002 104.65">vpClingValue </tspan></text>
</g><g
             id="g96"><text
               id="text100"
               style="font-variant:normal;font-weight:normal;font-stretch:normal;font-size:18px;font-family:Arial;-inkscape-font-specification:ArialMT;writing-mode:lr-tb;fill:#204a87;fill-opacity:1;fill-rule:nonzero;stroke:none"
               transform="translate(704.179,268.09)"><tspan
                 id="tspan98"
                 y="0"
                 x="0 3.45 12.45 22.450001 26.450001 36.450001">'void </tspan></text>
</g><g
             id="g102"><text
               id="text106"
               style="font-variant:normal;font-weight:normal;font-stretch:normal;font-size:18px;font-family:Arial;-inkscape-font-specification:ArialMT;writing-mode:lr-tb;fill:#204a87;fill-opacity:1;fill-rule:nonzero;stroke:none"
               transform="translate(745.629,268.09)"><tspan
                 id="tspan104"
                 y="0"
                 x="0">*</tspan></text>
</g><g
             id="g108"><text
               id="text112"
               style="font-variant:normal;font-weight:normal;font-stretch:normal;font-size:18px;font-family:Arial;-inkscape-font-specification:ArialMT;writing-mode:lr-tb;fill:#204a87;fill-opacity:1;fill-rule:nonzero;stroke:none"
               transform="translate(752.629,268.09)"><tspan
                 id="tspan110"
                 y="0"
                 x="0">'</tspan></text>
</g><g
             id="g114"><text
               id="text118"
               style="font-variant:normal;font-weight:normal;font-stretch:normal;font-size:18px;font-family:Arial;-inkscape-font-specification:ArialMT;writing-mode:lr-tb;fill:#000000;fill-opacity:1;fill-rule:nonzero;stroke:none"
               transform="translate(462.829,289.69)"><tspan
                 id="tspan116"
                 y="0"
                 x="0 6 12">`- </tspan></text>
</g><g
             id="g120"><text
               id="text124"
               style="font-variant:normal;font-weight:bold;font-stretch:normal;font-size:18px;font-family:Arial;-inkscape-font-specification:Arial-BoldMT;writing-mode:lr-tb;fill:#ad7fa8;fill-opacity:1;fill-rule:nonzero;stroke:none"
               transform="translate(479.829,289.69)"><tspan
                 id="tspan122"
                 y="0"
                 x="0 13 24 40 51 62 73 84 95 107 113 129">CompoundStmt</tspan></text>
</g><g
             id="g126"><text
               id="text130"
               style="font-variant:normal;font-weight:normal;font-stretch:normal;font-size:18px;font-family:Arial;-inkscape-font-specification:ArialMT;writing-mode:lr-tb;fill:#000000;fill-opacity:1;fill-rule:nonzero;stroke:none"
               transform="translate(482.829,311.29)"><tspan
                 id="tspan128"
                 y="0"
                 x="0 4.6999998 10.7">|- </tspan></text>
</g><g
             id="g132"><text
               id="text136"
               style="font-variant:normal;font-weight:bold;font-stretch:normal;font-size:18px;font-family:Arial;-inkscape-font-specification:Arial-BoldMT;writing-mode:lr-tb;fill:#ad7fa8;fill-opacity:1;fill-rule:nonzero;stroke:none"
               transform="translate(498.529,311.29)"><tspan
                 id="tspan134"
                 y="0"
                 x="0 13 23 33 38 50 56 72">DeclStmt</tspan></text>
</g><g
             id="g138" /><g
             id="g140"><text
               id="text144"
               style="font-variant:normal;font-weight:normal;font-stretch:normal;font-size:18px;font-family:Arial;-inkscape-font-specification:ArialMT;writing-mode:lr-tb;fill:#000000;fill-opacity:1;fill-rule:nonzero;stroke:none"
               transform="translate(482.829,332.89)"><tspan
                 id="tspan142"
                 y="0"
                 x="0 4.6999998 9.6999998 14.4 20.4">| |- </tspan></text>
</g><g
             id="g146"><text
               id="text150"
               style="font-variant:normal;font-weight:bold;font-stretch:normal;font-size:18px;font-family:Arial;-inkscape-font-specification:Arial-BoldMT;writing-mode:lr-tb;fill:#ad7fa8;fill-opacity:1;fill-rule:nonzero;stroke:none"
               transform="translate(508.229,332.89)"><tspan
                 id="tspan148"
                 y="0"
                 x="0 11 21 28 41 51 61 66">VarDecl </tspan></text>
</g><g
             id="g152"><text
               id="text156"
               style="font-variant:normal;font-weight:normal;font-stretch:normal;font-size:18px;font-family:Arial;-inkscape-font-specification:ArialMT;writing-mode:lr-tb;fill:#000000;fill-opacity:1;fill-rule:nonzero;stroke:none"
               transform="translate(579.229,332.89)"><tspan
                 id="tspan154"
                 y="0"
                 x="0 4">i </tspan></text>
</g><g
             id="g158"><text
               id="text162"
               style="font-variant:normal;font-weight:normal;font-stretch:normal;font-size:18px;font-family:Arial;-inkscape-font-specification:ArialMT;writing-mode:lr-tb;fill:#204a87;fill-opacity:1;fill-rule:nonzero;stroke:none"
               transform="translate(588.229,332.89)"><tspan
                 id="tspan160"
                 y="0"
                 x="0 3.45 7.4499998 17.450001 22.450001 27.450001 30.9">'int ' </tspan></text>
</g><g
             id="g164"><text
               id="text168"
               style="font-variant:normal;font-weight:normal;font-stretch:normal;font-size:18px;font-family:Arial;-inkscape-font-specification:ArialMT;writing-mode:lr-tb;fill:#000000;fill-opacity:1;fill-rule:nonzero;stroke:none"
               transform="translate(624.129,332.89)"><tspan
                 id="tspan166"
                 y="0"
                 x="0 9 13 23 27">cinit</tspan></text>
</g><g
             id="g170" /><g
             id="g172"><text
               id="text176"
               style="font-variant:normal;font-weight:normal;font-stretch:normal;font-size:18px;font-family:Arial;-inkscape-font-specification:ArialMT;writing-mode:lr-tb;fill:#000000;fill-opacity:1;fill-rule:nonzero;stroke:none"
               transform="translate(482.829,354.49)"><tspan
                 id="tspan174"
                 y="0"
                 x="0 4.6999998 9.6999998 14.4 19.4 25.4 31.4">| | `- </tspan></text>
</g><g
             id="g178"><text
               id="text182"
               style="font-variant:normal;font-weight:bold;font-stretch:normal;font-size:18px;font-family:Arial;-inkscape-font-specification:Arial-BoldMT;writing-mode:lr-tb;fill:#ad7fa8;fill-opacity:1;fill-rule:nonzero;stroke:none"
               transform="translate(519.229,354.49)"><tspan
                 id="tspan180"
                 y="0"
                 x="0 5 16 22 32 43 53 60 71 76 82 92 99 109 114">IntegerLiteral </tspan></text>
</g><g
             id="g184"><text
               id="text188"
               style="font-variant:normal;font-weight:normal;font-stretch:normal;font-size:18px;font-family:Arial;-inkscape-font-specification:ArialMT;writing-mode:lr-tb;fill:#204a87;fill-opacity:1;fill-rule:nonzero;stroke:none"
               transform="translate(638.229,354.49)"><tspan
                 id="tspan186"
                 y="0"
                 x="0 3.45 7.4499998 17.450001 22.450001 27.450001 30.9">'int ' </tspan></text>
</g><g
             id="g190"><text
               id="text194"
               style="font-variant:normal;font-weight:normal;font-stretch:normal;font-size:18px;font-family:Arial;-inkscape-font-specification:ArialMT;writing-mode:lr-tb;fill:#000000;fill-opacity:1;fill-rule:nonzero;stroke:none"
               transform="translate(674.129,354.49)"><tspan
                 id="tspan192"
                 y="0"
                 x="0">0</tspan></text>
</g><g
             id="g196" /><g
             id="g198"><text
               id="text202"
               style="font-variant:normal;font-weight:normal;font-stretch:normal;font-size:18px;font-family:Arial;-inkscape-font-specification:ArialMT;writing-mode:lr-tb;fill:#000000;fill-opacity:1;fill-rule:nonzero;stroke:none"
               transform="translate(482.829,376.09)"><tspan
                 id="tspan200"
                 y="0"
                 x="0 4.6999998 9.6999998 15.7 21.700001">| `- </tspan></text>
</g><g
             id="g204"><text
               id="text208"
               style="font-variant:normal;font-weight:bold;font-stretch:normal;font-size:18px;font-family:Arial;-inkscape-font-specification:Arial-BoldMT;writing-mode:lr-tb;fill:#ad7fa8;fill-opacity:1;fill-rule:nonzero;stroke:none"
               transform="translate(509.529,376.09)"><tspan
                 id="tspan206"
                 y="0"
                 x="0 11 21 28 41 51 61 66">VarDecl </tspan></text>
</g><g
             id="g210"><text
               id="text214"
               style="font-variant:normal;font-weight:normal;font-stretch:normal;font-size:18px;font-family:Arial;-inkscape-font-specification:ArialMT;writing-mode:lr-tb;fill:#000000;fill-opacity:1;fill-rule:nonzero;stroke:none"
               transform="translate(580.529,376.09)"><tspan
                 id="tspan212"
                 y="0"
                 x="0 4">j </tspan></text>
</g><g
             id="g216"><text
               id="text220"
               style="font-variant:normal;font-weight:normal;font-stretch:normal;font-size:18px;font-family:Arial;-inkscape-font-specification:ArialMT;writing-mode:lr-tb;fill:#204a87;fill-opacity:1;fill-rule:nonzero;stroke:none"
               transform="translate(589.529,376.09)"><tspan
                 id="tspan218"
                 y="0"
                 x="0 3.45 7.4499998 17.450001 22.450001 27.450001">'int '</tspan></text>
</g><g
             id="g222"><path
               id="path224"
               style="fill:#4874cb;fill-opacity:1;fill-rule:nonzero;stroke:none"
               d="m 357.109,33.019 0.154,0.024 0.14,0.071 0.11,0.111 0.071,0.139 0.025,0.155 v 80.306 l -0.025,0.154 -0.071,0.14 -0.11,0.11 -0.14,0.071 -0.154,0.025 H 139.182 l -0.155,-0.025 -0.139,-0.071 -0.111,-0.11 -0.071,-0.14 -0.024,-0.154 V 33.519 l 0.024,-0.155 0.071,-0.139 0.111,-0.111 0.139,-0.071 0.155,-0.024 z m -217.927,1 0.5,-0.5 v 80.306 l -0.5,-0.5 h 217.927 l -0.5,0.5 V 33.519 l 0.5,0.5 H 139.182" /></g><g
             id="g226"><text
               id="text230"
               style="font-variant:normal;font-weight:normal;font-stretch:normal;font-size:18px;font-family:Arial;-inkscape-font-specification:ArialMT;writing-mode:lr-tb;fill:#000000;fill-opacity:1;fill-rule:nonzero;stroke:none"
               transform="translate(146.382,79.969)"><tspan
                 id="tspan228"
                 y="0"
                 x="0 5 14 18 28 38 48 53">[cinde] </tspan></text>
</g><g
             id="g232"><text
               id="text236"
               style="font-variant:normal;font-weight:bold;font-stretch:normal;font-size:18px;font-family:Arial;-inkscape-font-specification:Arial-BoldMT;writing-mode:lr-tb;fill:#204a87;fill-opacity:1;fill-rule:nonzero;stroke:none"
               transform="translate(204.382,79.969)"><tspan
                 id="tspan234"
                 y="0"
                 x="0 5 16 22">int </tspan></text>
</g><g
             id="g238"><text
               id="text242"
               style="font-variant:normal;font-weight:normal;font-stretch:normal;font-size:18px;font-family:Arial;-inkscape-font-specification:ArialMT;writing-mode:lr-tb;fill:#000000;fill-opacity:1;fill-rule:nonzero;stroke:none"
               transform="translate(231.382,79.969)"><tspan
                 id="tspan240"
                 y="0"
                 x="0 4 9 19.5 24.5 34.5 39.5">i = 0; </tspan></text>
</g><g
             id="g244"><text
               id="text248"
               style="font-variant:normal;font-weight:bold;font-stretch:normal;font-size:18px;font-family:Arial;-inkscape-font-specification:Arial-BoldMT;writing-mode:lr-tb;fill:#204a87;fill-opacity:1;fill-rule:nonzero;stroke:none"
               transform="translate(275.882,79.969)"><tspan
                 id="tspan246"
                 y="0"
                 x="0 5 16 22">int </tspan></text>
</g><g
             id="g250"><text
               id="text254"
               style="font-variant:normal;font-weight:normal;font-stretch:normal;font-size:18px;font-family:Arial;-inkscape-font-specification:ArialMT;writing-mode:lr-tb;fill:#000000;fill-opacity:1;fill-rule:nonzero;stroke:none"
               transform="translate(302.882,79.969)"><tspan
                 id="tspan252"
                 y="0"
                 x="0 4">j;</tspan></text>
</g><g
             id="g256"><path
               id="path258"
               style="fill:#4874cb;fill-opacity:1;fill-rule:nonzero;stroke:none"
               d="m 936.222,33.019 0.155,0.024 0.139,0.071 0.111,0.111 0.071,0.139 0.024,0.155 v 72.594 l -0.024,0.154 -0.071,0.14 -0.111,0.11 -0.139,0.071 -0.155,0.025 H 464.587 l -0.154,-0.025 -0.14,-0.071 -0.11,-0.11 -0.071,-0.14 -0.025,-0.154 V 33.519 l 0.025,-0.155 0.071,-0.139 0.11,-0.111 0.14,-0.071 0.154,-0.024 z m -471.635,1 0.5,-0.5 v 72.594 l -0.5,-0.5 h 471.635 l -0.5,0.5 V 33.519 l 0.5,0.5 H 464.587" /></g><g
             id="g260"><text
               id="text264"
               style="font-variant:normal;font-weight:bold;font-stretch:normal;font-size:18px;font-family:Arial;-inkscape-font-specification:Arial-BoldMT;writing-mode:lr-tb;fill:#204a87;fill-opacity:1;fill-rule:nonzero;stroke:none"
               transform="translate(471.787,54.219)"><tspan
                 id="tspan262"
                 y="0"
                 x="0 10 21 26 37">void </tspan></text>
</g><g
             id="g266"><text
               id="text270"
               style="font-variant:normal;font-weight:normal;font-stretch:normal;font-size:18px;font-family:Arial;-inkscape-font-specification:ArialMT;writing-mode:lr-tb;fill:#000000;fill-opacity:1;fill-rule:nonzero;stroke:none"
               transform="translate(513.787,54.219)"><tspan
                 id="tspan268"
                 y="0"
                 x="0 10 20 29 33 37 47 57 67 80 90 100 114 124 134 144 149">__cling_Un1Qu30 (</tspan></text>
</g><g
             id="g272"><text
               id="text276"
               style="font-variant:normal;font-weight:bold;font-stretch:normal;font-size:18px;font-family:Arial;-inkscape-font-specification:Arial-BoldMT;writing-mode:lr-tb;fill:#204a87;fill-opacity:1;fill-rule:nonzero;stroke:none"
               transform="translate(668.787,54.219)"><tspan
                 id="tspan274"
                 y="0"
                 x="0 10 21 26 37">void </tspan></text>
</g><g
             id="g278"><text
               id="text282"
               style="font-variant:normal;font-weight:bold;font-stretch:normal;font-size:18px;font-family:Arial;-inkscape-font-specification:Arial-BoldMT;writing-mode:lr-tb;fill:#204a87;fill-opacity:1;fill-rule:nonzero;stroke:none"
               transform="translate(710.787,54.219)"><tspan
                 id="tspan280"
                 y="0"
                 x="0">*</tspan></text>
</g><g
             id="g284"><text
               id="text288"
               style="font-variant:normal;font-weight:normal;font-stretch:normal;font-size:18px;font-family:Arial;-inkscape-font-specification:ArialMT;writing-mode:lr-tb;fill:#000000;fill-opacity:1;fill-rule:nonzero;stroke:none"
               transform="translate(717.787,54.219)"><tspan
                 id="tspan286"
                 y="0"
                 x="0 9 19 32 36 40 50 60 70.650002 80.650002 84.650002 94.650002 104.65 109.65 115.65">vpClingValue ) </tspan></text>
</g><g
             id="g290"><text
               id="text294"
               style="font-variant:normal;font-weight:normal;font-stretch:normal;font-size:18px;font-family:Arial;-inkscape-font-specification:ArialMT;writing-mode:lr-tb;fill:#000000;fill-opacity:1;fill-rule:nonzero;stroke:none"
               transform="translate(838.437,54.219)"><tspan
                 id="tspan292"
                 y="0"
                 x="0 6">{ </tspan></text>
</g><g
             id="g296" /><g
             id="g298"><text
               id="text302"
               style="font-variant:normal;font-weight:bold;font-stretch:normal;font-size:18px;font-family:Arial;-inkscape-font-specification:Arial-BoldMT;writing-mode:lr-tb;fill:#204a87;fill-opacity:1;fill-rule:nonzero;stroke:none"
               transform="translate(511.787,75.819)"><tspan
                 id="tspan300"
                 y="0"
                 x="0 5 16 22">int </tspan></text>
</g><g
             id="g304"><text
               id="text308"
               style="font-variant:normal;font-weight:normal;font-stretch:normal;font-size:18px;font-family:Arial;-inkscape-font-specification:ArialMT;writing-mode:lr-tb;fill:#000000;fill-opacity:1;fill-rule:nonzero;stroke:none"
               transform="translate(538.787,75.819)"><tspan
                 id="tspan306"
                 y="0"
                 x="0 4 9 19.5 24.5 34.5 39.5">i = 0; </tspan></text>
</g><g
             id="g310"><text
               id="text314"
               style="font-variant:normal;font-weight:bold;font-stretch:normal;font-size:18px;font-family:Arial;-inkscape-font-specification:Arial-BoldMT;writing-mode:lr-tb;fill:#204a87;fill-opacity:1;fill-rule:nonzero;stroke:none"
               transform="translate(583.287,75.819)"><tspan
                 id="tspan312"
                 y="0"
                 x="0 5 16 22">int </tspan></text>
</g><g
             id="g316"><text
               id="text320"
               style="font-variant:normal;font-weight:normal;font-stretch:normal;font-size:18px;font-family:Arial;-inkscape-font-specification:ArialMT;writing-mode:lr-tb;fill:#000000;fill-opacity:1;fill-rule:nonzero;stroke:none"
               transform="translate(610.287,75.819)"><tspan
                 id="tspan318"
                 y="0"
                 x="0 4">j;</tspan></text>
</g><g
             id="g322"><text
               id="text326"
               style="font-variant:normal;font-weight:normal;font-stretch:normal;font-size:18px;font-family:Arial;-inkscape-font-specification:ArialMT;writing-mode:lr-tb;fill:#000000;fill-opacity:1;fill-rule:nonzero;stroke:none"
               transform="translate(471.787,97.419)"><tspan
                 id="tspan324"
                 y="0"
                 x="0">}</tspan></text>
</g><g
             id="g328"><path
               id="path330"
               style="fill:#4874cb;fill-opacity:1;fill-rule:nonzero;stroke:none"
               d="m 308.703,252.813 0.155,0.024 0.139,0.071 0.111,0.111 0.071,0.139 0.024,0.155 v 94.389 l -0.024,0.154 -0.071,0.14 -0.111,0.11 -0.139,0.071 -0.155,0.025 H 23.872 l -0.154,-0.025 -0.14,-0.071 -0.11,-0.11 -0.071,-0.14 -0.025,-0.154 v -94.389 l 0.025,-0.155 0.071,-0.139 0.11,-0.111 0.14,-0.071 0.154,-0.024 z m -284.831,1 0.5,-0.5 v 94.389 l -0.5,-0.5 h 284.831 l -0.5,0.5 v -94.389 l 0.5,0.5 H 23.872" /></g><g
             id="g332"><text
               id="text336"
               style="font-variant:normal;font-weight:bold;font-stretch:normal;font-size:18px;font-family:Arial;-inkscape-font-specification:Arial-BoldMT;writing-mode:lr-tb;fill:#ad7fa8;fill-opacity:1;fill-rule:nonzero;stroke:none"
               transform="translate(31.072,274.013)"><tspan
                 id="tspan334"
                 y="0"
                 x="0 11 24">TU </tspan></text>
</g><g
             id="g338"><text
               id="text342"
               style="font-variant:normal;font-weight:normal;font-stretch:normal;font-size:18px;font-family:Arial;-inkscape-font-specification:ArialMT;writing-mode:lr-tb;fill:#000000;fill-opacity:1;fill-rule:nonzero;stroke:none"
               transform="translate(60.072,274.013)"><tspan
                 id="tspan340"
                 y="0"
                 x="0 6 11 16 21">- ...</tspan></text>
</g><g
             id="g344"><text
               id="text348"
               style="font-variant:normal;font-weight:normal;font-stretch:normal;font-size:18px;font-family:Arial;-inkscape-font-specification:ArialMT;writing-mode:lr-tb;fill:#000000;fill-opacity:1;fill-rule:nonzero;stroke:none"
               transform="translate(36.072,295.613)"><tspan
                 id="tspan346"
                 y="0"
                 x="0 4.6999998 10.7">|- </tspan></text>
</g><g
             id="g350"><text
               id="text354"
               style="font-variant:normal;font-weight:bold;font-stretch:normal;font-size:18px;font-family:Arial;-inkscape-font-specification:Arial-BoldMT;writing-mode:lr-tb;fill:#ad7fa8;fill-opacity:1;fill-rule:nonzero;stroke:none"
               transform="translate(51.772,295.613)"><tspan
                 id="tspan352"
                 y="0"
                 x="0 11 21 28 41 51 61 66">VarDecl </tspan></text>
</g><g
             id="g356"><text
               id="text360"
               style="font-variant:normal;font-weight:normal;font-stretch:normal;font-size:18px;font-family:Arial;-inkscape-font-specification:ArialMT;writing-mode:lr-tb;fill:#000000;fill-opacity:1;fill-rule:nonzero;stroke:none"
               transform="translate(122.772,295.613)"><tspan
                 id="tspan358"
                 y="0"
                 x="0 4">i </tspan></text>
</g><g
             id="g362"><text
               id="text366"
               style="font-variant:normal;font-weight:normal;font-stretch:normal;font-size:18px;font-family:Arial;-inkscape-font-specification:ArialMT;writing-mode:lr-tb;fill:#204a87;fill-opacity:1;fill-rule:nonzero;stroke:none"
               transform="translate(131.772,295.613)"><tspan
                 id="tspan364"
                 y="0"
                 x="0 3.45 7.4499998 17.450001 22.450001 27.450001 30.9">'int ' </tspan></text>
</g><g
             id="g368"><text
               id="text372"
               style="font-variant:normal;font-weight:normal;font-stretch:normal;font-size:18px;font-family:Arial;-inkscape-font-specification:ArialMT;writing-mode:lr-tb;fill:#000000;fill-opacity:1;fill-rule:nonzero;stroke:none"
               transform="translate(167.672,295.613)"><tspan
                 id="tspan370"
                 y="0"
                 x="0 9 13 23 27">cinit</tspan></text>
</g><g
             id="g374"><text
               id="text378"
               style="font-variant:normal;font-weight:normal;font-stretch:normal;font-size:18px;font-family:Arial;-inkscape-font-specification:ArialMT;writing-mode:lr-tb;fill:#000000;fill-opacity:1;fill-rule:nonzero;stroke:none"
               transform="translate(36.072,317.213)"><tspan
                 id="tspan376"
                 y="0"
                 x="0 4.6999998 19.700001 25.700001 31.700001">| `- </tspan></text>
</g><g
             id="g380"><text
               id="text384"
               style="font-variant:normal;font-weight:bold;font-stretch:normal;font-size:18px;font-family:Arial;-inkscape-font-specification:Arial-BoldMT;writing-mode:lr-tb;fill:#ad7fa8;fill-opacity:1;fill-rule:nonzero;stroke:none"
               transform="translate(72.772,317.213)"><tspan
                 id="tspan382"
                 y="0"
                 x="0 5 16 22 32 43 53 60 71 76 82 92 99 109 114">IntegerLiteral </tspan></text>
</g><g
             id="g386"><text
               id="text390"
               style="font-variant:normal;font-weight:normal;font-stretch:normal;font-size:18px;font-family:Arial;-inkscape-font-specification:ArialMT;writing-mode:lr-tb;fill:#204a87;fill-opacity:1;fill-rule:nonzero;stroke:none"
               transform="translate(191.772,317.213)"><tspan
                 id="tspan388"
                 y="0"
                 x="0 3.45 7.4499998 17.450001 22.450001 27.450001 30.9">'int ' </tspan></text>
</g><g
             id="g392"><text
               id="text396"
               style="font-variant:normal;font-weight:normal;font-stretch:normal;font-size:18px;font-family:Arial;-inkscape-font-specification:ArialMT;writing-mode:lr-tb;fill:#000000;fill-opacity:1;fill-rule:nonzero;stroke:none"
               transform="translate(227.672,317.213)"><tspan
                 id="tspan394"
                 y="0"
                 x="0">0</tspan></text>
</g><g
             id="g398"><text
               id="text402"
               style="font-variant:normal;font-weight:normal;font-stretch:normal;font-size:18px;font-family:Arial;-inkscape-font-specification:ArialMT;writing-mode:lr-tb;fill:#000000;fill-opacity:1;fill-rule:nonzero;stroke:none"
               transform="translate(36.072,338.813)"><tspan
                 id="tspan400"
                 y="0"
                 x="0 6 12">`- </tspan></text>
</g><g
             id="g404"><text
               id="text408"
               style="font-variant:normal;font-weight:bold;font-stretch:normal;font-size:18px;font-family:Arial;-inkscape-font-specification:Arial-BoldMT;writing-mode:lr-tb;fill:#ad7fa8;fill-opacity:1;fill-rule:nonzero;stroke:none"
               transform="translate(53.072,338.813)"><tspan
                 id="tspan406"
                 y="0"
                 x="0 11 21 28 41 51 61 66">VarDecl </tspan></text>
</g><g
             id="g410"><text
               id="text414"
               style="font-variant:normal;font-weight:normal;font-stretch:normal;font-size:18px;font-family:Arial;-inkscape-font-specification:ArialMT;writing-mode:lr-tb;fill:#000000;fill-opacity:1;fill-rule:nonzero;stroke:none"
               transform="translate(124.072,338.813)"><tspan
                 id="tspan412"
                 y="0"
                 x="0 4">j </tspan></text>
</g><g
             id="g416"><text
               id="text420"
               style="font-variant:normal;font-weight:normal;font-stretch:normal;font-size:18px;font-family:Arial;-inkscape-font-specification:ArialMT;writing-mode:lr-tb;fill:#204a87;fill-opacity:1;fill-rule:nonzero;stroke:none"
               transform="translate(133.072,338.813)"><tspan
                 id="tspan418"
                 y="0"
                 x="0 3.45 7.4499998 17.450001 22.450001 27.450001">'int '</tspan></text>
</g><g
             id="g422"><path
               id="path424"
               style="fill:#2e54a1;fill-opacity:1;fill-rule:nonzero;stroke:none"
               d="m 682.885,158.507 -0.5,0.5 v -38.222 h 47.381 v 38.222 l -0.5,-0.5 h 24.597 l -47.787,38.867 -47.788,-38.867 z m -23.19,1 0.316,-0.887 46.38,37.722 h -0.631 l 46.381,-37.722 0.315,0.887 h -23.69 v -38.222 l 0.5,0.5 h -46.381 l 0.5,-0.5 v 38.222 h -23.69" /></g><g
             id="g426"><text
               id="text430"
               style="font-variant:normal;font-weight:normal;font-stretch:normal;font-size:15.94999981px;font-family:'Microsoft YaHei';-inkscape-font-specification:MicrosoftYaHei;writing-mode:tb-rl;fill:#000000;fill-opacity:1;fill-rule:nonzero;stroke:none"
               transform="translate(711.15143,147.621)"><tspan
                 id="tspan428"
                 y="0 16"
                 x="0">解析</tspan></text>
</g><g
             id="g432"><text
               id="text436"
               style="font-variant:normal;font-weight:normal;font-stretch:normal;font-size:15.94999981px;font-family:'Microsoft YaHei';-inkscape-font-specification:MicrosoftYaHei;writing-mode:tb-rl;fill:#000000;fill-opacity:1;fill-rule:nonzero;stroke:none"
               transform="translate(691.95142,139.621)"><tspan
                 id="tspan434"
                 y="0 16 32"
                 x="0">语法树</tspan></text>
</g><g
             id="g438"><path
               id="path440"
               style="fill:#2e54a1;fill-opacity:1;fill-rule:nonzero;stroke:none"
               d="m 98.274,57.098 -0.5,0.5 V 40.359 L 131.045,73.63 97.774,106.901 V 89.662 l 0.5,0.5 H 54.022 V 57.098 Z m -43.752,1 0.5,-0.5 v 32.064 l -0.5,-0.5 h 44.252 v 16.532 l -0.853,-0.354 32.063,-32.064 v 0.707 L 97.921,41.92 98.774,41.566 V 58.098 H 54.522" /></g><g
             id="g442"><text
               id="text446"
               style="font-variant:normal;font-weight:normal;font-stretch:normal;font-size:15.94999981px;font-family:'Microsoft YaHei';-inkscape-font-specification:MicrosoftYaHei;writing-mode:lr-tb;fill:#000000;fill-opacity:1;fill-rule:nonzero;stroke:none"
               transform="translate(68.372,78.998)"><tspan
                 id="tspan444"
                 y="0"
                 x="0 16">输入</tspan></text>
</g><g
             id="g448"><path
               id="path450"
               style="fill:#2e54a1;fill-opacity:1;fill-rule:nonzero;stroke:none"
               d="m 423.679,57.098 -0.5,0.5 V 40.359 L 456.45,73.63 423.179,106.901 V 89.662 l 0.5,0.5 H 365.588 V 57.098 Z m -57.591,1 0.5,-0.5 v 32.064 l -0.5,-0.5 h 58.091 v 16.532 l -0.853,-0.354 32.064,-32.064 v 0.707 l -32.064,-32.063 0.853,-0.354 v 16.532 h -58.091" /></g><g
             id="g452"><text
               id="text456"
               style="font-variant:normal;font-weight:normal;font-stretch:normal;font-size:15.94999981px;font-family:'Microsoft YaHei';-inkscape-font-specification:MicrosoftYaHei;writing-mode:lr-tb;fill:#000000;fill-opacity:1;fill-rule:nonzero;stroke:none"
               transform="translate(378.888,78.998)"><tspan
                 id="tspan454"
                 y="0"
                 x="0 16 32">包装器</tspan></text>
</g><g
             id="g458"><path
               id="path460"
               style="fill:#2e54a1;fill-opacity:1;fill-rule:nonzero;stroke:none"
               d="m 350.178,272.392 v 17.239 l -0.5,-0.5 h 72.539 v 33.063 h -72.539 l 0.5,-0.5 v 17.239 l -33.27,-33.271 z m -32.21,33.624 v -0.707 l 32.064,32.064 -0.854,0.353 v -16.532 h 72.539 l -0.5,0.5 v -32.063 l 0.5,0.5 h -72.539 v -16.532 l 0.854,0.353 -32.064,32.064" /></g><g
             id="g462"><text
               id="text466"
               style="font-variant:normal;font-weight:normal;font-stretch:normal;font-size:15.94999981px;font-family:'Microsoft YaHei';-inkscape-font-specification:MicrosoftYaHei;writing-mode:lr-tb;fill:#000000;fill-opacity:1;fill-rule:nonzero;stroke:none"
               transform="translate(345.646,311.031)"><tspan
                 id="tspan464"
                 y="0"
                 x="0 16 32 48">提取声明</tspan></text>
</g></g></g></g></g></svg>