<svg xmlns="http://www.w3.org/2000/svg" xmlns:xlink="http://www.w3.org/1999/xlink" width="960.05pt" height="587.667" viewBox="0 0 960.05 440.75"><clipPath id="a"><path d="M0 0h960.05v440.75H0z" fill-rule="evenodd"/></clipPath><g clip-path="url(#a)"><path d="M0 0h960v440.76H0z" fill="#fff" fill-rule="evenodd"/><path d="m936.222 203.69.155.025.139.071.111.11.071.14.024.154v203.029l-.024.154-.071.14-.111.11-.139.071-.155.025H430.629l-.155-.025-.139-.071-.111-.11-.071-.14-.024-.154V204.19l.024-.154.071-.14.111-.11.139-.071.155-.025h505.593zm-505.593 1 .5-.5v203.029l-.5-.5h505.593l-.5.5V204.19l.5.5H430.629" fill="#4874cb"/><symbol id="b"><path d="M.212 0v.595H0v.12h.569v-.12H.357V0H.212z"/></symbol><symbol id="c"><path d="M0 .728h.145V.34C.145.28.146.24.15.22A.117.117 0 0 1 .194.15.156.156 0 0 1 .29.124c.04 0 .071.008.092.024A.1.1 0 0 1 .42.21a.805.805 0 0 1 .006.122v.396h.145V.352A.966.966 0 0 0 .559.17.2.2 0 0 0 .432.02.37.37 0 0 0 .294 0a.402.402 0 0 0-.156.023.226.226 0 0 0-.083.062.2.2 0 0 0-.04.08A.87.87 0 0 0 0 .346v.382z"/></symbol><symbol id="d"><path d="M0 0z"/></symbol><use xlink:href="#b" transform="matrix(18 0 0 -18 438.216 224.89)" fill="#ad7fa8"/><use xlink:href="#c" transform="matrix(18 0 0 -18 450.121 225.11)" fill="#ad7fa8"/><use xlink:href="#d" transform="matrix(18 0 0 -18 461.829 224.89)" fill="#ad7fa8"/><symbol id="e"><path d="M0 0v.088h.27V0H0z"/></symbol><symbol id="f"><path d="M0 0z"/></symbol><symbol id="g"><path d="M0 0v.1h.1V0H0z"/></symbol><use xlink:href="#e" transform="matrix(18 0 0 -18 467.4 221.023)"/><use xlink:href="#f" transform="matrix(18 0 0 -18 472.829 224.89)"/><use xlink:href="#g" transform="matrix(18 0 0 -18 479.464 224.89)"/><use xlink:href="#g" transform="matrix(18 0 0 -18 484.464 224.89)"/><use xlink:href="#g" transform="matrix(18 0 0 -18 489.464 224.89)"/><symbol id="h"><path d="M.184 0H.113L0 .137h.118L.184 0z"/></symbol><use xlink:href="#f" transform="matrix(18 0 0 -18 437.829 246.49)"/><use xlink:href="#h" transform="matrix(18 0 0 -18 443.611 235.996)"/><use xlink:href="#e" transform="matrix(18 0 0 -18 449.4 242.623)"/><use xlink:href="#f" transform="matrix(18 0 0 -18 454.829 246.49)"/><symbol id="i"><path d="M0 0v.716h.49V.595H.146v-.17h.298v-.12H.145V0H0z"/></symbol><symbol id="j"><path d="M.344.012v.077A.207.207 0 0 0 .078.023a.135.135 0 0 0-.06.064A.288.288 0 0 0 0 .202V.53h.137V.292C.137.219.14.174.145.158a.076.076 0 0 1 .027-.04.086.086 0 0 1 .051-.014c.024 0 .045.007.063.02A.1.1 0 0 1 .324.17c.007.02.01.066.01.14v.22h.138V.01H.344z"/></symbol><symbol id="k"><path d="M.473 0H.335v.265a.406.406 0 0 1-.008.108.076.076 0 0 1-.077.052.11.11 0 0 1-.063-.02.1.1 0 0 1-.04-.051.458.458 0 0 1-.01-.12V0H0v.519h.127V.442A.208.208 0 0 0 .298.53C.328.53.356.525.381.514a.135.135 0 0 0 .084-.1.416.416 0 0 0 .008-.092V0z"/></symbol><symbol id="l"><path d="M.482.377.347.353a.098.098 0 0 1-.031.06.093.093 0 0 1-.063.021.103.103 0 0 1-.082-.036C.151.375.141.336.141.28c0-.061.01-.105.03-.13A.103.103 0 0 1 .256.112c.026 0 .048.007.064.022.017.015.029.04.035.076L.49.188a.24.24 0 0 0-.08-.14A.25.25 0 0 0 .249 0a.238.238 0 0 0-.182.072A.279.279 0 0 0 0 .27c0 .085.023.152.068.2A.24.24 0 0 0 .25.541a.248.248 0 0 0 .15-.041.224.224 0 0 0 .081-.124z"/></symbol><symbol id="m"><path d="M.294.53V.42H.201V.213C.2.17.2.145.203.138A.032.032 0 0 1 .215.12.04.04 0 0 1 .24.114c.012 0 .03.004.055.013L.306.021A.273.273 0 0 0 .197 0 .175.175 0 0 0 .13.012a.102.102 0 0 0-.044.032.132.132 0 0 0-.019.054.665.665 0 0 0-.004.097V.42H0v.11h.063v.102l.138.08V.53h.093z"/></symbol><symbol id="n"><path d="M0 .589v.127h.137V.589H0M0 0v.519h.137V0H0z"/></symbol><symbol id="o"><path d="M0 .278c0 .046.011.09.034.133a.232.232 0 0 0 .095.097.285.285 0 0 0 .138.034.258.258 0 0 0 .268-.27A.268.268 0 0 0 .46.077.256.256 0 0 0 .269 0a.303.303 0 0 0-.137.032.222.222 0 0 0-.098.094A.316.316 0 0 0 0 .278M.14.271C.14.22.154.181.178.153a.116.116 0 0 1 .09-.041c.036 0 .066.013.09.04.025.028.037.068.037.12 0 .05-.012.09-.037.117a.115.115 0 0 1-.09.041.116.116 0 0 1-.09-.04C.153.361.141.321.141.27z"/></symbol><symbol id="p"><path d="M0 .716h.264C.324.716.37.71.4.702A.24.24 0 0 0 .508.636.312.312 0 0 0 .577.52.526.526 0 0 0 .6.351.47.47 0 0 0 .578.2.316.316 0 0 0 .501.072.254.254 0 0 0 .4.015.437.437 0 0 0 .272 0H0v.716M.145.595V.12h.107c.04 0 .07.002.088.006a.132.132 0 0 1 .058.03.15.15 0 0 1 .038.07.47.47 0 0 1 .015.13.428.428 0 0 1-.015.128.164.164 0 0 1-.041.07.138.138 0 0 1-.067.033.655.655 0 0 1-.119.007H.145z"/></symbol><symbol id="q"><path d="M.34.177.477.154A.225.225 0 0 0 .394.039.245.245 0 0 0 .25 0c-.09 0-.156.03-.2.088A.297.297 0 0 0 0 .268c0 .085.022.152.067.2a.222.222 0 0 0 .17.074A.23.23 0 0 0 .42.465C.465.415.486.337.484.231H.141A.14.14 0 0 1 .174.136.104.104 0 0 1 .253.103c.021 0 .04.005.054.017.015.012.026.03.033.057m.008.138c0 .04-.011.07-.03.09a.094.094 0 0 1-.072.032.095.095 0 0 1-.074-.033.127.127 0 0 1-.029-.089h.205z"/></symbol><symbol id="r"><path d="M0 0v.716h.137V0H0z"/></symbol><use xlink:href="#i" transform="matrix(18 0 0 -18 461.156 246.49)" fill="#ad7fa8"/><use xlink:href="#j" transform="matrix(18 0 0 -18 472.068 246.701)" fill="#ad7fa8"/><use xlink:href="#k" transform="matrix(18 0 0 -18 483.103 246.49)" fill="#ad7fa8"/><use xlink:href="#l" transform="matrix(18 0 0 -18 493.576 246.701)" fill="#ad7fa8"/><use xlink:href="#m" transform="matrix(18 0 0 -18 503.101 246.701)" fill="#ad7fa8"/><use xlink:href="#n" transform="matrix(18 0 0 -18 510.121 246.49)" fill="#ad7fa8"/><use xlink:href="#o" transform="matrix(18 0 0 -18 514.55 246.701)" fill="#ad7fa8"/><use xlink:href="#k" transform="matrix(18 0 0 -18 526.103 246.49)" fill="#ad7fa8"/><use xlink:href="#p" transform="matrix(18 0 0 -18 537.13 246.49)" fill="#ad7fa8"/><use xlink:href="#q" transform="matrix(18 0 0 -18 549.4 246.701)" fill="#ad7fa8"/><use xlink:href="#l" transform="matrix(18 0 0 -18 559.576 246.701)" fill="#ad7fa8"/><use xlink:href="#r" transform="matrix(18 0 0 -18 570.121 246.49)" fill="#ad7fa8"/><use xlink:href="#d" transform="matrix(18 0 0 -18 573.829 246.49)" fill="#ad7fa8"/><symbol id="s"><path d="M0 0v.063h.583V0H0z"/></symbol><symbol id="t"><path d="M.365.202.452.19A.225.225 0 0 0 .379.05.21.21 0 0 0 .236 0a.224.224 0 0 0-.172.07C.021.115 0 .181 0 .268c0 .056.01.105.028.147A.193.193 0 0 0 .112.51c.038.021.08.032.124.032A.214.214 0 0 0 .375.499.195.195 0 0 0 .443.378L.358.365a.141.141 0 0 1-.044.078A.11.11 0 0 1 .24.47.136.136 0 0 1 .132.422C.104.39.09.34.09.272c0-.07.014-.12.04-.152A.13.13 0 0 1 .235.072c.034 0 .063.01.086.032a.158.158 0 0 1 .044.098z"/></symbol><symbol id="u"><path d="M0 0v.716h.088V0H0z"/></symbol><symbol id="v"><path d="M0 .615v.1h.088v-.1H0M0 0v.519h.088V0H0z"/></symbol><symbol id="w"><path d="M0 0v.519h.08V.445A.186.186 0 0 0 .243.53C.275.53.304.525.33.513A.134.134 0 0 0 .39.47.17.17 0 0 0 .416.404.503.503 0 0 0 .42.32V0H.333v.315a.235.235 0 0 1-.01.08.083.083 0 0 1-.036.043.113.113 0 0 1-.061.016.143.143 0 0 1-.098-.036C.101.395.088.35.088.283V0H0z"/></symbol><symbol id="x"><path d="M.018.167.103.155C.107.128.117.109.133.097a.146.146 0 0 1 .09-.024c.04 0 .071.008.093.024a.12.12 0 0 1 .045.069.561.561 0 0 1 .007.112A.18.18 0 0 0 .224.21.196.196 0 0 0 .06.288.343.343 0 0 0 .027.61a.215.215 0 0 0 .077.097.211.211 0 0 0 .12.034.186.186 0 0 0 .152-.074v.062h.081V.281A.42.42 0 0 0 .432.109.178.178 0 0 0 .354.03.27.27 0 0 0 .223 0a.247.247 0 0 0-.15.042C.035.07.016.112.018.167M.09.48C.09.411.104.361.13.33A.129.129 0 0 1 .233.283.13.13 0 0 1 .334.33c.027.03.041.08.041.146C.375.54.361.587.333.62a.13.13 0 0 1-.202 0C.104.59.091.542.091.48z"/></symbol><symbol id="y"><path d="M.468.728h.095V.314a.49.49 0 0 0-.024-.17A.21.21 0 0 0 .45.04.312.312 0 0 0 .283 0 .344.344 0 0 0 .12.035a.198.198 0 0 0-.092.1.48.48 0 0 0-.027.18v.413h.095V.315A.41.41 0 0 1 .112.177.133.133 0 0 1 .172.11.208.208 0 0 1 .274.085c.07 0 .12.016.149.048.03.031.044.092.044.182v.413z"/></symbol><symbol id="z"><path d="M.264 0H.176v.56A.582.582 0 0 0 0 .454V.54a.53.53 0 0 1 .129.084.33.33 0 0 1 .078.096h.057V0z"/></symbol><symbol id="A"><path d="M.577.132A.58.58 0 0 1 .698.066L.67 0a.558.558 0 0 0-.153.088A.354.354 0 0 0 .34.043.34.34 0 0 0 .165.09a.315.315 0 0 0-.123.132A.422.422 0 0 0 0 .414c0 .07.014.135.043.192.029.058.07.102.122.133.053.03.112.045.178.045A.343.343 0 0 0 .52.737.304.304 0 0 0 .643.605a.423.423 0 0 0 .042-.19.446.446 0 0 0-.027-.16.333.333 0 0 0-.081-.123M.368.253A.35.35 0 0 0 .503.185c.056.05.084.127.084.23 0 .057-.01.108-.03.15a.232.232 0 0 1-.214.137A.233.233 0 0 1 .167.63C.121.582.097.51.097.414c0-.094.024-.165.07-.215A.23.23 0 0 1 .343.125C.377.125.41.13.44.144a.307.307 0 0 1-.094.04l.023.07z"/></symbol><symbol id="B"><path d="M.342.012v.076A.19.19 0 0 0 .177 0C.147 0 .118.006.091.018a.144.144 0 0 0-.059.044.17.17 0 0 0-.027.065A.446.446 0 0 0 0 .209V.53h.088V.243C.088.197.09.166.093.15A.093.093 0 0 1 .128.095a.11.11 0 0 1 .067-.02c.026 0 .05.007.074.02.023.014.04.033.049.056.01.023.015.057.015.101V.53H.42V.012H.342z"/></symbol><symbol id="C"><path d="m0 .202.088.011A.196.196 0 0 1 .139.105.129.129 0 0 1 .228.073c.041 0 .076.014.105.043a.145.145 0 0 1 .042.106.136.136 0 0 1-.14.14.252.252 0 0 1-.062-.01l.01.077.014-.001c.038 0 .071.01.101.029.03.02.045.05.045.09 0 .033-.01.06-.032.08A.116.116 0 0 1 .226.66.12.12 0 0 1 .141.627.162.162 0 0 1 .097.53L.009.546c.01.059.035.104.073.137A.211.211 0 0 0 .224.73C.264.731.3.723.332.706a.179.179 0 0 0 .102-.16C.434.513.425.485.409.46A.17.17 0 0 0 .335.4.166.166 0 0 0 .434.338.184.184 0 0 0 .469.224.212.212 0 0 0 .4.064.24.24 0 0 0 .228 0 .218.218 0 0 0 0 .202z"/></symbol><symbol id="D"><path d="M0 .365C0 .45.009.518.026.57a.257.257 0 0 0 .078.12.2.2 0 0 0 .13.042.21.21 0 0 0 .1-.023A.19.19 0 0 0 .406.64.355.355 0 0 0 .451.534.704.704 0 0 0 .467.365.66.66 0 0 0 .44.162a.255.255 0 0 0-.078-.12A.198.198 0 0 0 .233 0a.196.196 0 0 0-.162.074C.024.134 0 .231 0 .365m.09 0C.09.248.104.17.131.13.16.092.193.072.233.072c.04 0 .075.02.102.059.028.039.041.117.041.234C.376.483.363.561.335.6.308.64.273.658.232.658A.113.113 0 0 1 .136.607C.106.563.09.483.09.365z"/></symbol><use xlink:href="#s" transform="matrix(18 0 0 -18 578.557 250.067)"/><use xlink:href="#s" transform="matrix(18 0 0 -18 588.557 250.067)"/><use xlink:href="#t" transform="matrix(18 0 0 -18 599.532 246.701)"/><use xlink:href="#u" transform="matrix(18 0 0 -18 608.98 246.49)"/><use xlink:href="#v" transform="matrix(18 0 0 -18 613.024 246.49)"/><use xlink:href="#w" transform="matrix(18 0 0 -18 617.015 246.49)"/><use xlink:href="#x" transform="matrix(18 0 0 -18 626.41 250.278)"/><use xlink:href="#s" transform="matrix(18 0 0 -18 635.557 250.067)"/><use xlink:href="#y" transform="matrix(18 0 0 -18 647.244 246.71)"/><use xlink:href="#w" transform="matrix(18 0 0 -18 660.015 246.49)"/><use xlink:href="#z" transform="matrix(18 0 0 -18 670.789 246.49)"/><use xlink:href="#A" transform="matrix(18 0 0 -18 679.602 247.492)"/><use xlink:href="#B" transform="matrix(18 0 0 -18 693.98 246.701)"/><use xlink:href="#C" transform="matrix(18 0 0 -18 703.585 246.719)"/><use xlink:href="#D" transform="matrix(18 0 0 -18 713.576 246.71)"/><use xlink:href="#f" transform="matrix(18 0 0 -18 722.829 246.49)"/><symbol id="E"><path d="M.022 0 0 .134v.12h.1v-.12L.077 0H.022z"/></symbol><symbol id="F"><path d="M.197 0 0 .519h.093L.204.208C.216.174.227.14.237.104.245.13.256.164.27.202L.385.52h.09L.28 0H.197z"/></symbol><symbol id="G"><path d="M0 .271c0 .096.027.167.08.213a.241.241 0 0 0 .163.058c.071 0 .13-.023.175-.07A.266.266 0 0 0 .486.278C.486.212.476.16.456.121A.211.211 0 0 0 .368.03.253.253 0 0 0 .243 0a.234.234 0 0 0-.176.07C.022.116 0 .183 0 .27m.09 0c0-.066.015-.116.044-.15a.14.14 0 0 1 .11-.049c.043 0 .08.017.108.05.029.033.044.084.044.152C.396.338.38.387.352.419a.138.138 0 0 1-.109.05.14.14 0 0 1-.11-.05C.106.388.09.338.09.272z"/></symbol><symbol id="H"><path d="M.368.012v.065A.161.161 0 0 0 .223 0 .205.205 0 0 0 .11.034a.227.227 0 0 0-.08.095A.334.334 0 0 0 0 .271c0 .051.009.098.026.14a.204.204 0 0 0 .193.131.171.171 0 0 0 .143-.071v.257H.45V.012H.368M.09.27C.09.204.104.154.132.12a.127.127 0 0 1 .1-.049c.038 0 .07.016.097.047.027.032.04.08.04.144C.37.334.357.386.33.42a.126.126 0 0 1-.2.002C.103.39.09.34.09.271z"/></symbol><symbol id="I"><path d="M.173 0A.879.879 0 0 0 .05.215a.668.668 0 0 0-.012.477c.029.083.074.165.135.246h.063A1.685 1.685 0 0 1 .158.793.792.792 0 0 1 .09.47C.09.313.14.156.236 0H.173z"/></symbol><use xlink:href="#E" transform="matrix(18 0 0 -18 728.62 238.167)" fill="#204a87"/><use xlink:href="#F" transform="matrix(18 0 0 -18 731.508 246.49)" fill="#204a87"/><use xlink:href="#G" transform="matrix(18 0 0 -18 740.877 246.701)" fill="#204a87"/><use xlink:href="#v" transform="matrix(18 0 0 -18 751.474 246.49)" fill="#204a87"/><use xlink:href="#H" transform="matrix(18 0 0 -18 754.894 246.701)" fill="#204a87"/><use xlink:href="#f" transform="matrix(18 0 0 -18 764.279 246.49)" fill="#204a87"/><use xlink:href="#I" transform="matrix(18 0 0 -18 770.369 250.278)" fill="#204a87"/><use xlink:href="#f" transform="matrix(18 0 0 -18 775.279 246.49)" fill="#204a87"/><use xlink:href="#F" transform="matrix(18 0 0 -18 780.508 246.49)" fill="#204a87"/><use xlink:href="#G" transform="matrix(18 0 0 -18 789.877 246.701)" fill="#204a87"/><use xlink:href="#v" transform="matrix(18 0 0 -18 800.474 246.49)" fill="#204a87"/><use xlink:href="#H" transform="matrix(18 0 0 -18 803.894 246.701)" fill="#204a87"/><use xlink:href="#f" transform="matrix(18 0 0 -18 813.279 246.49)" fill="#204a87"/><symbol id="J"><path d="m0 .161.022.07A.75.75 0 0 0 .135.182c-.006.059-.01.1-.01.122h.071a1.218 1.218 0 0 0-.01-.121A.846.846 0 0 0 .3.23L.323.161A.608.608 0 0 0 .2.134.816.816 0 0 0 .285.042L.227 0C.207.026.185.06.16.105A.787.787 0 0 0 .096 0L.04.042c.037.046.064.077.08.092A1.763 1.763 0 0 0 0 .16z"/></symbol><use xlink:href="#J" transform="matrix(18 0 0 -18 818.841 238.87)" fill="#204a87"/><symbol id="K"><path d="M.063 0H0a.881.881 0 0 1 .146.47.802.802 0 0 1-.067.322A1.65 1.65 0 0 1 0 .938h.063A.936.936 0 0 0 .199.692.664.664 0 0 0 .186.215.888.888 0 0 0 .063 0z"/></symbol><use xlink:href="#K" transform="matrix(18 0 0 -18 826.369 250.278)" fill="#204a87"/><use xlink:href="#f" transform="matrix(18 0 0 -18 831.279 246.49)" fill="#204a87"/><use xlink:href="#E" transform="matrix(18 0 0 -18 837.07 238.167)" fill="#204a87"/><symbol id="L"><path d="M0 0v.938h.077V0H0z"/></symbol><use xlink:href="#f" transform="matrix(18 0 0 -18 437.829 268.09)"/><use xlink:href="#f" transform="matrix(18 0 0 -18 442.829 268.09)"/><use xlink:href="#f" transform="matrix(18 0 0 -18 447.829 268.09)"/><use xlink:href="#f" transform="matrix(18 0 0 -18 452.829 268.09)"/><use xlink:href="#f" transform="matrix(18 0 0 -18 457.829 268.09)"/><use xlink:href="#L" transform="matrix(18 0 0 -18 464.481 271.878)"/><use xlink:href="#e" transform="matrix(18 0 0 -18 468.1 264.223)"/><use xlink:href="#f" transform="matrix(18 0 0 -18 473.529 268.09)"/><symbol id="M"><path d="M0 0v.716h.232a.841.841 0 0 0 .172-.01.187.187 0 0 0 .103-.071.221.221 0 0 0 .041-.14.234.234 0 0 0-.024-.11A.197.197 0 0 0 .39.28a.825.825 0 0 0-.15-.01H.145V0H0m.145.595V.392h.079c.057 0 .095.003.114.01.02.008.034.02.045.036a.095.095 0 0 1 .016.056.092.092 0 0 1-.023.064.1.1 0 0 1-.058.032.695.695 0 0 1-.104.005h-.07z"/></symbol><symbol id="N"><path d="M.139.372.014.395c.014.05.038.087.072.11A.264.264 0 0 0 .24.543.325.325 0 0 0 .375.52.133.133 0 0 0 .438.465.278.278 0 0 0 .457.342L.456.182c0-.045.002-.08.006-.1a.304.304 0 0 1 .025-.07H.35a.505.505 0 0 0-.018.056.247.247 0 0 0-.075-.05A.215.215 0 0 0 .172 0a.178.178 0 0 0-.126.043.145.145 0 0 0-.046.11c0 .03.007.056.021.078.014.024.034.041.059.053a.456.456 0 0 0 .109.032.748.748 0 0 1 .133.034v.014C.322.39.316.409.302.42.29.43.266.437.23.437A.097.097 0 0 1 .172.422a.099.099 0 0 1-.033-.05M.322.261A.858.858 0 0 0 .24.24.252.252 0 0 1 .164.216.057.057 0 0 1 .137.167c0-.019.007-.035.022-.05a.075.075 0 0 1 .054-.02c.025 0 .049.008.071.024a.086.086 0 0 1 .033.046.27.27 0 0 1 .005.066v.028z"/></symbol><symbol id="O"><path d="M.137 0H0v.519h.127V.445a.224.224 0 0 0 .059.069.11.11 0 0 0 .06.016.174.174 0 0 0 .09-.026L.293.384A.12.12 0 0 1 .23.408.075.075 0 0 1 .18.391C.167.381.156.361.148.334A.832.832 0 0 1 .138.16V0z"/></symbol><symbol id="P"><path d="M0 .519h.126V.448c.046.055.1.082.162.082A.174.174 0 0 0 .375.51a.158.158 0 0 0 .06-.062.24.24 0 0 0 .073.062.18.18 0 0 0 .085.02C.63.53.663.522.689.507A.14.14 0 0 0 .75.439.295.295 0 0 0 .763.332V0H.625v.296c0 .052-.004.085-.014.1C.6.416.58.426.553.426A.094.094 0 0 1 .499.407.098.098 0 0 1 .462.356.368.368 0 0 1 .45.249V0H.313v.284c0 .05-.002.083-.007.098a.062.062 0 0 1-.023.033.07.07 0 0 1-.041.01A.095.095 0 0 1 .148.36a.375.375 0 0 1-.01-.107V0H0v.519z"/></symbol><symbol id="Q"><path d="M.256 0 0 .716h.157l.18-.53.176.53h.154L.41 0H.256z"/></symbol><use xlink:href="#M" transform="matrix(18 0 0 -18 479.839 268.09)" fill="#ad7fa8"/><use xlink:href="#N" transform="matrix(18 0 0 -18 491.17 268.3)" fill="#ad7fa8"/><use xlink:href="#O" transform="matrix(18 0 0 -18 501.716 268.09)" fill="#ad7fa8"/><use xlink:href="#P" transform="matrix(18 0 0 -18 508.636 268.09)" fill="#ad7fa8"/><use xlink:href="#Q" transform="matrix(18 0 0 -18 523.52 268.09)" fill="#ad7fa8"/><use xlink:href="#N" transform="matrix(18 0 0 -18 535.17 268.3)" fill="#ad7fa8"/><use xlink:href="#O" transform="matrix(18 0 0 -18 545.716 268.09)" fill="#ad7fa8"/><use xlink:href="#p" transform="matrix(18 0 0 -18 552.83 268.09)" fill="#ad7fa8"/><use xlink:href="#q" transform="matrix(18 0 0 -18 565.1 268.3)" fill="#ad7fa8"/><use xlink:href="#l" transform="matrix(18 0 0 -18 575.276 268.3)" fill="#ad7fa8"/><use xlink:href="#r" transform="matrix(18 0 0 -18 585.821 268.09)" fill="#ad7fa8"/><use xlink:href="#d" transform="matrix(18 0 0 -18 589.529 268.09)" fill="#ad7fa8"/><symbol id="R"><path d="M0 0v.717h.08V.65C.1.676.12.696.144.709c.024.013.053.02.086.02A.205.205 0 0 0 .348.695.21.21 0 0 0 .424.598.35.35 0 0 0 .45.462C.45.409.44.36.421.318A.215.215 0 0 0 .224.187a.167.167 0 0 0-.079.019.18.18 0 0 0-.057.046V0H0m.08.455C.08.388.093.34.12.307A.124.124 0 0 1 .218.26c.04 0 .073.017.1.05C.346.342.36.393.36.462.36.528.347.578.32.611a.122.122 0 0 1-.098.05C.185.66.152.642.122.606.095.573.08.522.08.455z"/></symbol><symbol id="S"><path d="M.538.263.633.24A.32.32 0 0 0 .525.061.295.295 0 0 0 .336 0a.343.343 0 0 0-.188.047.298.298 0 0 0-.11.137.49.49 0 0 0 .004.386c.03.056.07.098.122.127.053.029.11.043.174.043a.293.293 0 0 0 .18-.054.284.284 0 0 0 .103-.154L.527.51a.221.221 0 0 1-.072.114.193.193 0 0 1-.12.035.233.233 0 0 1-.137-.04A.21.21 0 0 1 .12.514.442.442 0 0 1 .124.216.2.2 0 0 1 .207.115.232.232 0 0 1 .329.08c.053 0 .098.015.134.046.037.03.062.076.075.136z"/></symbol><symbol id="T"><path d="M.277 0 0 .716h.103l.186-.52C.304.154.316.116.326.079.337.118.35.157.365.196l.193.52h.097L.375 0H.277z"/></symbol><symbol id="U"><path d="M.368.076A.27.27 0 0 0 .178 0C.12 0 .075.014.045.042A.139.139 0 0 0 0 .148a.142.142 0 0 0 .063.12c.018.013.04.023.063.03A.628.628 0 0 0 .204.31a.803.803 0 0 1 .157.03v.023C.361.4.353.424.336.439.314.46.281.47.236.47.195.47.164.462.145.447.125.433.11.407.1.371L.015.382a.21.21 0 0 0 .039.09c.018.022.043.04.077.051A.342.342 0 0 0 .25.542c.044 0 .08-.005.108-.016a.141.141 0 0 0 .061-.04.136.136 0 0 0 .027-.059.495.495 0 0 0 .005-.08V.228C.45.147.45.096.455.074A.2.2 0 0 1 .478.012H.386a.186.186 0 0 0-.018.064M.361.272A.645.645 0 0 0 .217.239.332.332 0 0 1 .141.22a.076.076 0 0 1-.047-.07C.094.127.103.108.12.092.138.077.164.07.198.07s.064.007.09.022a.138.138 0 0 1 .059.06c.01.02.014.05.014.089v.032z"/></symbol><symbol id="V"><path d="M.384.179.475.167a.222.222 0 0 0-.08-.123A.24.24 0 0 0 .248 0a.238.238 0 0 0-.18.07A.275.275 0 0 0 0 .267C0 .354.022.422.067.47a.228.228 0 0 0 .175.072c.07 0 .126-.024.17-.07a.281.281 0 0 0 .066-.2.82.82 0 0 0 0-.023H.09A.2.2 0 0 1 .139.118.144.144 0 0 1 .248.072c.032 0 .06.009.082.026.023.017.04.044.054.08M.096.322h.29a.176.176 0 0 1-.034.098.135.135 0 0 1-.109.05.14.14 0 0 1-.102-.04.161.161 0 0 1-.045-.108z"/></symbol><use xlink:href="#F" transform="matrix(18 0 0 -18 594.758 268.09)"/><use xlink:href="#R" transform="matrix(18 0 0 -18 604.716 271.667)"/><use xlink:href="#S" transform="matrix(18 0 0 -18 614.426 268.31)"/><use xlink:href="#u" transform="matrix(18 0 0 -18 627.68 268.09)"/><use xlink:href="#v" transform="matrix(18 0 0 -18 631.724 268.09)"/><use xlink:href="#w" transform="matrix(18 0 0 -18 635.716 268.09)"/><use xlink:href="#x" transform="matrix(18 0 0 -18 645.11 271.878)"/><use xlink:href="#T" transform="matrix(18 0 0 -18 654.608 268.09)"/><use xlink:href="#U" transform="matrix(18 0 0 -18 665.83 268.3)"/><use xlink:href="#u" transform="matrix(18 0 0 -18 676.33 268.09)"/><use xlink:href="#B" transform="matrix(18 0 0 -18 680.33 268.3)"/><use xlink:href="#V" transform="matrix(18 0 0 -18 689.838 268.3)"/><use xlink:href="#f" transform="matrix(18 0 0 -18 699.179 268.09)"/><use xlink:href="#E" transform="matrix(18 0 0 -18 704.97 259.767)" fill="#204a87"/><use xlink:href="#F" transform="matrix(18 0 0 -18 707.858 268.09)" fill="#204a87"/><use xlink:href="#G" transform="matrix(18 0 0 -18 717.227 268.3)" fill="#204a87"/><use xlink:href="#v" transform="matrix(18 0 0 -18 727.824 268.09)" fill="#204a87"/><use xlink:href="#H" transform="matrix(18 0 0 -18 731.244 268.3)" fill="#204a87"/><use xlink:href="#f" transform="matrix(18 0 0 -18 740.629 268.09)" fill="#204a87"/><use xlink:href="#J" transform="matrix(18 0 0 -18 746.192 260.47)" fill="#204a87"/><use xlink:href="#E" transform="matrix(18 0 0 -18 753.42 259.767)" fill="#204a87"/><use xlink:href="#f" transform="matrix(18 0 0 -18 437.829 289.69)"/><use xlink:href="#f" transform="matrix(18 0 0 -18 442.829 289.69)"/><use xlink:href="#f" transform="matrix(18 0 0 -18 447.829 289.69)"/><use xlink:href="#f" transform="matrix(18 0 0 -18 452.829 289.69)"/><use xlink:href="#f" transform="matrix(18 0 0 -18 457.829 289.69)"/><use xlink:href="#h" transform="matrix(18 0 0 -18 463.611 279.196)"/><use xlink:href="#e" transform="matrix(18 0 0 -18 469.4 285.823)"/><use xlink:href="#f" transform="matrix(18 0 0 -18 474.829 289.69)"/><symbol id="W"><path d="m.483.275.14-.044A.315.315 0 0 0 .517.057.306.306 0 0 0 .326 0a.308.308 0 0 0-.234.097A.374.374 0 0 0 0 .364C0 .483.03.575.092.64c.062.066.143.1.243.1A.298.298 0 0 0 .548.662.282.282 0 0 0 .622.53L.479.497a.151.151 0 0 1-.054.087.15.15 0 0 1-.097.033.164.164 0 0 1-.13-.057C.165.52.148.46.148.375.149.284.166.22.199.18A.159.159 0 0 1 .325.124c.038 0 .071.012.099.036a.213.213 0 0 1 .06.115z"/></symbol><symbol id="X"><path d="M0 .716h.128V.64A.191.191 0 0 0 .29.728C.35.728.4.704.443.657A.287.287 0 0 0 .506.459.296.296 0 0 0 .442.257.198.198 0 0 0 .21.203.264.264 0 0 0 .137.26V0H0v.716m.136-.25c0-.059.011-.102.034-.13A.106.106 0 0 1 .255.294a.1.1 0 0 1 .08.039C.354.358.365.4.365.458c0 .055-.01.095-.033.122a.101.101 0 0 1-.08.04.105.105 0 0 1-.084-.04C.147.554.136.516.136.465z"/></symbol><symbol id="Y"><path d="M.506.012H.38v.076A.208.208 0 0 0 .304.02.193.193 0 0 0 .217 0c-.06 0-.11.024-.154.072a.295.295 0 0 0-.063.2c0 .089.02.156.062.201A.202.202 0 0 0 .369.47v.258h.137V.012M.14.282c0-.055.008-.095.023-.12A.104.104 0 0 1 .256.108c.031 0 .058.014.08.04C.36.175.37.216.37.27c0 .06-.011.102-.033.128a.102.102 0 0 1-.082.04.104.104 0 0 1-.082-.04C.15.373.14.335.14.283z"/></symbol><symbol id="Z"><path d="m0 .246.14.013A.172.172 0 0 1 .193.155.157.157 0 0 1 .297.122c.046 0 .081.01.105.03.024.02.035.042.035.069a.064.064 0 0 1-.015.043.116.116 0 0 1-.051.03 1.779 1.779 0 0 1-.116.032.393.393 0 0 0-.163.071.186.186 0 0 0-.035.246c.02.032.05.056.089.073A.36.36 0 0 0 .287.74C.377.74.444.72.49.68A.208.208 0 0 0 .562.525L.417.518C.411.554.397.58.377.597S.327.62.286.62A.165.165 0 0 1 .187.595.052.052 0 0 1 .164.551c0-.017.007-.032.022-.044A.38.38 0 0 1 .318.46.685.685 0 0 0 .474.408.197.197 0 0 0 .582.22a.21.21 0 0 0-.13-.195A.409.409 0 0 0 .294 0a.31.31 0 0 0-.208.063A.274.274 0 0 0 0 .245z"/></symbol><use xlink:href="#W" transform="matrix(18 0 0 -18 480.682 289.91)" fill="#ad7fa8"/><use xlink:href="#o" transform="matrix(18 0 0 -18 493.55 289.901)" fill="#ad7fa8"/><use xlink:href="#P" transform="matrix(18 0 0 -18 504.936 289.69)" fill="#ad7fa8"/><use xlink:href="#X" transform="matrix(18 0 0 -18 521.05 293.24)" fill="#ad7fa8"/><use xlink:href="#o" transform="matrix(18 0 0 -18 531.55 289.901)" fill="#ad7fa8"/><use xlink:href="#j" transform="matrix(18 0 0 -18 543.068 289.901)" fill="#ad7fa8"/><use xlink:href="#k" transform="matrix(18 0 0 -18 554.103 289.69)" fill="#ad7fa8"/><use xlink:href="#Y" transform="matrix(18 0 0 -18 564.567 289.901)" fill="#ad7fa8"/><use xlink:href="#Z" transform="matrix(18 0 0 -18 575.48 289.919)" fill="#ad7fa8"/><use xlink:href="#m" transform="matrix(18 0 0 -18 587.101 289.901)" fill="#ad7fa8"/><use xlink:href="#P" transform="matrix(18 0 0 -18 593.936 289.69)" fill="#ad7fa8"/><use xlink:href="#m" transform="matrix(18 0 0 -18 609.101 289.901)" fill="#ad7fa8"/><use xlink:href="#f" transform="matrix(18 0 0 -18 437.829 311.29)"/><use xlink:href="#f" transform="matrix(18 0 0 -18 442.829 311.29)"/><use xlink:href="#f" transform="matrix(18 0 0 -18 447.829 311.29)"/><use xlink:href="#f" transform="matrix(18 0 0 -18 452.829 311.29)"/><use xlink:href="#f" transform="matrix(18 0 0 -18 457.829 311.29)"/><use xlink:href="#f" transform="matrix(18 0 0 -18 462.829 311.29)"/><use xlink:href="#f" transform="matrix(18 0 0 -18 467.829 311.29)"/><use xlink:href="#f" transform="matrix(18 0 0 -18 472.829 311.29)"/><use xlink:href="#f" transform="matrix(18 0 0 -18 477.829 311.29)"/><use xlink:href="#L" transform="matrix(18 0 0 -18 484.481 315.078)"/><use xlink:href="#e" transform="matrix(18 0 0 -18 488.1 307.423)"/><use xlink:href="#f" transform="matrix(18 0 0 -18 493.529 311.29)"/><use xlink:href="#p" transform="matrix(18 0 0 -18 499.83 311.29)" fill="#ad7fa8"/><use xlink:href="#q" transform="matrix(18 0 0 -18 512.1 311.501)" fill="#ad7fa8"/><use xlink:href="#l" transform="matrix(18 0 0 -18 522.276 311.501)" fill="#ad7fa8"/><use xlink:href="#r" transform="matrix(18 0 0 -18 532.821 311.29)" fill="#ad7fa8"/><use xlink:href="#Z" transform="matrix(18 0 0 -18 537.18 311.519)" fill="#ad7fa8"/><use xlink:href="#m" transform="matrix(18 0 0 -18 548.801 311.501)" fill="#ad7fa8"/><use xlink:href="#P" transform="matrix(18 0 0 -18 555.636 311.29)" fill="#ad7fa8"/><use xlink:href="#m" transform="matrix(18 0 0 -18 570.801 311.501)" fill="#ad7fa8"/><use xlink:href="#f" transform="matrix(18 0 0 -18 437.829 332.89)"/><use xlink:href="#f" transform="matrix(18 0 0 -18 442.829 332.89)"/><use xlink:href="#f" transform="matrix(18 0 0 -18 447.829 332.89)"/><use xlink:href="#f" transform="matrix(18 0 0 -18 452.829 332.89)"/><use xlink:href="#f" transform="matrix(18 0 0 -18 457.829 332.89)"/><use xlink:href="#f" transform="matrix(18 0 0 -18 462.829 332.89)"/><use xlink:href="#f" transform="matrix(18 0 0 -18 467.829 332.89)"/><use xlink:href="#f" transform="matrix(18 0 0 -18 472.829 332.89)"/><use xlink:href="#f" transform="matrix(18 0 0 -18 477.829 332.89)"/><use xlink:href="#L" transform="matrix(18 0 0 -18 484.481 336.678)"/><use xlink:href="#f" transform="matrix(18 0 0 -18 487.529 332.89)"/><use xlink:href="#L" transform="matrix(18 0 0 -18 494.181 336.678)"/><use xlink:href="#e" transform="matrix(18 0 0 -18 497.8 329.023)"/><use xlink:href="#f" transform="matrix(18 0 0 -18 503.229 332.89)"/><use xlink:href="#Q" transform="matrix(18 0 0 -18 508.22 332.89)" fill="#ad7fa8"/><use xlink:href="#N" transform="matrix(18 0 0 -18 519.87 333.101)" fill="#ad7fa8"/><use xlink:href="#O" transform="matrix(18 0 0 -18 530.415 332.89)" fill="#ad7fa8"/><use xlink:href="#p" transform="matrix(18 0 0 -18 537.53 332.89)" fill="#ad7fa8"/><use xlink:href="#q" transform="matrix(18 0 0 -18 549.8 333.101)" fill="#ad7fa8"/><use xlink:href="#l" transform="matrix(18 0 0 -18 559.976 333.101)" fill="#ad7fa8"/><use xlink:href="#r" transform="matrix(18 0 0 -18 570.521 332.89)" fill="#ad7fa8"/><use xlink:href="#d" transform="matrix(18 0 0 -18 574.229 332.89)" fill="#ad7fa8"/><use xlink:href="#v" transform="matrix(18 0 0 -18 580.424 332.89)"/><use xlink:href="#f" transform="matrix(18 0 0 -18 583.229 332.89)"/><symbol id="aa"><path d="M.24.085.253.008A.326.326 0 0 0 .187 0a.15.15 0 0 0-.075.015.085.085 0 0 0-.037.04.317.317 0 0 0-.01.104v.298H0v.068h.064v.129l.088.053V.525H.24V.457H.152V.154c0-.025.001-.041.004-.049A.038.038 0 0 1 .171.088a.06.06 0 0 1 .03-.006l.04.003z"/></symbol><use xlink:href="#E" transform="matrix(18 0 0 -18 589.02 324.567)" fill="#204a87"/><use xlink:href="#v" transform="matrix(18 0 0 -18 592.874 332.89)" fill="#204a87"/><use xlink:href="#w" transform="matrix(18 0 0 -18 596.866 332.89)" fill="#204a87"/><use xlink:href="#aa" transform="matrix(18 0 0 -18 605.995 333.013)" fill="#204a87"/><use xlink:href="#f" transform="matrix(18 0 0 -18 610.679 332.89)" fill="#204a87"/><use xlink:href="#E" transform="matrix(18 0 0 -18 616.47 324.567)" fill="#204a87"/><use xlink:href="#f" transform="matrix(18 0 0 -18 619.129 332.89)" fill="#204a87"/><use xlink:href="#t" transform="matrix(18 0 0 -18 624.832 333.101)"/><use xlink:href="#v" transform="matrix(18 0 0 -18 634.324 332.89)"/><use xlink:href="#w" transform="matrix(18 0 0 -18 638.316 332.89)"/><use xlink:href="#v" transform="matrix(18 0 0 -18 648.324 332.89)"/><use xlink:href="#aa" transform="matrix(18 0 0 -18 651.445 333.013)"/><use xlink:href="#f" transform="matrix(18 0 0 -18 437.829 354.49)"/><use xlink:href="#f" transform="matrix(18 0 0 -18 442.829 354.49)"/><use xlink:href="#f" transform="matrix(18 0 0 -18 447.829 354.49)"/><use xlink:href="#f" transform="matrix(18 0 0 -18 452.829 354.49)"/><use xlink:href="#f" transform="matrix(18 0 0 -18 457.829 354.49)"/><use xlink:href="#f" transform="matrix(18 0 0 -18 462.829 354.49)"/><use xlink:href="#f" transform="matrix(18 0 0 -18 467.829 354.49)"/><use xlink:href="#f" transform="matrix(18 0 0 -18 472.829 354.49)"/><use xlink:href="#f" transform="matrix(18 0 0 -18 477.829 354.49)"/><use xlink:href="#L" transform="matrix(18 0 0 -18 484.481 358.278)"/><use xlink:href="#f" transform="matrix(18 0 0 -18 487.529 354.49)"/><use xlink:href="#L" transform="matrix(18 0 0 -18 494.181 358.278)"/><use xlink:href="#f" transform="matrix(18 0 0 -18 497.229 354.49)"/><use xlink:href="#h" transform="matrix(18 0 0 -18 503.011 343.996)"/><use xlink:href="#e" transform="matrix(18 0 0 -18 508.8 350.623)"/><use xlink:href="#f" transform="matrix(18 0 0 -18 514.229 354.49)"/><symbol id="ab"><path d="M0 0v.716h.145V0H0z"/></symbol><symbol id="ac"><path d="M.018.176.175.157C.177.14.183.127.193.12.206.11.226.105.254.105a.16.16 0 0 1 .081.016.066.066 0 0 1 .027.035.208.208 0 0 1 .007.063v.075A.186.186 0 0 0 .213.21C.143.21.09.24.048.3A.3.3 0 0 0 0 .473C0 .56.02.626.063.672A.203.203 0 0 0 .218.74.19.19 0 0 0 .377.656V.73h.129V.264A.464.464 0 0 0 .49.126a.17.17 0 0 0-.043-.07.188.188 0 0 0-.073-.041A.382.382 0 0 0 .26 0C.172 0 .11.015.073.045A.141.141 0 0 0 .018.16v.016M.141.48C.14.425.15.385.172.36A.1.1 0 0 1 .252.32a.11.11 0 0 1 .084.04C.36.386.371.425.371.476c0 .054-.011.094-.033.12a.106.106 0 0 1-.084.039.102.102 0 0 1-.082-.039C.152.572.141.533.141.48z"/></symbol><symbol id="ad"><path d="M0 0v.71h.145V.12h.359V0H0z"/></symbol><use xlink:href="#ab" transform="matrix(18 0 0 -18 520.46 354.49)" fill="#ad7fa8"/><use xlink:href="#k" transform="matrix(18 0 0 -18 525.503 354.49)" fill="#ad7fa8"/><use xlink:href="#m" transform="matrix(18 0 0 -18 535.501 354.7)" fill="#ad7fa8"/><use xlink:href="#q" transform="matrix(18 0 0 -18 541.8 354.7)" fill="#ad7fa8"/><use xlink:href="#ac" transform="matrix(18 0 0 -18 551.967 358.278)" fill="#ad7fa8"/><use xlink:href="#q" transform="matrix(18 0 0 -18 562.8 354.7)" fill="#ad7fa8"/><use xlink:href="#O" transform="matrix(18 0 0 -18 573.415 354.49)" fill="#ad7fa8"/><use xlink:href="#ad" transform="matrix(18 0 0 -18 580.609 354.49)" fill="#ad7fa8"/><use xlink:href="#n" transform="matrix(18 0 0 -18 591.521 354.49)" fill="#ad7fa8"/><use xlink:href="#m" transform="matrix(18 0 0 -18 595.501 354.7)" fill="#ad7fa8"/><use xlink:href="#q" transform="matrix(18 0 0 -18 601.8 354.7)" fill="#ad7fa8"/><use xlink:href="#O" transform="matrix(18 0 0 -18 612.415 354.49)" fill="#ad7fa8"/><use xlink:href="#N" transform="matrix(18 0 0 -18 618.87 354.7)" fill="#ad7fa8"/><use xlink:href="#r" transform="matrix(18 0 0 -18 629.521 354.49)" fill="#ad7fa8"/><use xlink:href="#d" transform="matrix(18 0 0 -18 633.229 354.49)" fill="#ad7fa8"/><use xlink:href="#E" transform="matrix(18 0 0 -18 639.02 346.167)" fill="#204a87"/><use xlink:href="#v" transform="matrix(18 0 0 -18 642.874 354.49)" fill="#204a87"/><use xlink:href="#w" transform="matrix(18 0 0 -18 646.866 354.49)" fill="#204a87"/><use xlink:href="#aa" transform="matrix(18 0 0 -18 655.995 354.613)" fill="#204a87"/><use xlink:href="#f" transform="matrix(18 0 0 -18 660.679 354.49)" fill="#204a87"/><use xlink:href="#E" transform="matrix(18 0 0 -18 666.47 346.167)" fill="#204a87"/><use xlink:href="#f" transform="matrix(18 0 0 -18 669.129 354.49)" fill="#204a87"/><use xlink:href="#D" transform="matrix(18 0 0 -18 674.876 354.71)"/><use xlink:href="#f" transform="matrix(18 0 0 -18 437.829 376.09)"/><use xlink:href="#f" transform="matrix(18 0 0 -18 442.829 376.09)"/><use xlink:href="#f" transform="matrix(18 0 0 -18 447.829 376.09)"/><use xlink:href="#f" transform="matrix(18 0 0 -18 452.829 376.09)"/><use xlink:href="#f" transform="matrix(18 0 0 -18 457.829 376.09)"/><use xlink:href="#f" transform="matrix(18 0 0 -18 462.829 376.09)"/><use xlink:href="#f" transform="matrix(18 0 0 -18 467.829 376.09)"/><use xlink:href="#f" transform="matrix(18 0 0 -18 472.829 376.09)"/><use xlink:href="#f" transform="matrix(18 0 0 -18 477.829 376.09)"/><use xlink:href="#L" transform="matrix(18 0 0 -18 484.481 379.878)"/><use xlink:href="#f" transform="matrix(18 0 0 -18 487.529 376.09)"/><use xlink:href="#h" transform="matrix(18 0 0 -18 493.311 365.596)"/><use xlink:href="#e" transform="matrix(18 0 0 -18 499.1 372.223)"/><use xlink:href="#f" transform="matrix(18 0 0 -18 504.529 376.09)"/><use xlink:href="#Q" transform="matrix(18 0 0 -18 509.52 376.09)" fill="#ad7fa8"/><use xlink:href="#N" transform="matrix(18 0 0 -18 521.17 376.3)" fill="#ad7fa8"/><use xlink:href="#O" transform="matrix(18 0 0 -18 531.716 376.09)" fill="#ad7fa8"/><use xlink:href="#p" transform="matrix(18 0 0 -18 538.83 376.09)" fill="#ad7fa8"/><use xlink:href="#q" transform="matrix(18 0 0 -18 551.1 376.3)" fill="#ad7fa8"/><use xlink:href="#l" transform="matrix(18 0 0 -18 561.276 376.3)" fill="#ad7fa8"/><use xlink:href="#r" transform="matrix(18 0 0 -18 571.821 376.09)" fill="#ad7fa8"/><use xlink:href="#d" transform="matrix(18 0 0 -18 575.529 376.09)" fill="#ad7fa8"/><symbol id="ae"><path d="M.111.824v.102H.2V.824H.111M0 .01l.017.075A.177.177 0 0 1 .058.077c.018 0 .031.006.04.018.009.012.013.042.013.09v.544H.2V.182C.2.118.191.074.174.05.154.016.118 0 .07 0A.255.255 0 0 0 0 .01z"/></symbol><use xlink:href="#ae" transform="matrix(18 0 0 -18 579.703 379.878)"/><use xlink:href="#f" transform="matrix(18 0 0 -18 584.529 376.09)"/><use xlink:href="#E" transform="matrix(18 0 0 -18 590.32 367.767)" fill="#204a87"/><use xlink:href="#v" transform="matrix(18 0 0 -18 594.174 376.09)" fill="#204a87"/><use xlink:href="#w" transform="matrix(18 0 0 -18 598.165 376.09)" fill="#204a87"/><use xlink:href="#aa" transform="matrix(18 0 0 -18 607.295 376.213)" fill="#204a87"/><use xlink:href="#f" transform="matrix(18 0 0 -18 611.979 376.09)" fill="#204a87"/><use xlink:href="#E" transform="matrix(18 0 0 -18 617.77 367.767)" fill="#204a87"/><path d="m357.109 33.019.154.024.14.071.11.111.071.139.025.155v80.306l-.025.154-.071.14-.11.11-.14.071-.154.025H139.182l-.155-.025-.139-.071-.111-.11-.071-.14-.024-.154V33.519l.024-.155.071-.139.111-.111.139-.071.155-.024h217.927zm-217.927 1 .5-.5v80.306l-.5-.5h217.927l-.5.5V33.519l.5.5H139.182" fill="#4874cb"/><symbol id="af"><path d="M0 0v.915h.194V.842H.088v-.77h.106V0H0z"/></symbol><symbol id="ag"><path d="M.194 0H0v.073h.106v.769H0v.073h.194V0z"/></symbol><use xlink:href="#af" transform="matrix(18 0 0 -18 147.604 83.546)"/><use xlink:href="#t" transform="matrix(18 0 0 -18 152.085 80.18)"/><use xlink:href="#v" transform="matrix(18 0 0 -18 161.577 79.969)"/><use xlink:href="#w" transform="matrix(18 0 0 -18 165.569 79.969)"/><use xlink:href="#H" transform="matrix(18 0 0 -18 174.997 80.18)"/><use xlink:href="#V" transform="matrix(18 0 0 -18 185.041 80.18)"/><use xlink:href="#ag" transform="matrix(18 0 0 -18 194.725 83.546)"/><use xlink:href="#f" transform="matrix(18 0 0 -18 199.382 79.969)"/><use xlink:href="#n" transform="matrix(18 0 0 -18 205.674 79.969)" fill="#204a87"/><use xlink:href="#k" transform="matrix(18 0 0 -18 210.656 79.969)" fill="#204a87"/><use xlink:href="#m" transform="matrix(18 0 0 -18 220.654 80.18)" fill="#204a87"/><use xlink:href="#d" transform="matrix(18 0 0 -18 226.382 79.969)" fill="#204a87"/><symbol id="ah"><path d="M.473.217H0V.3h.473V.217m0-.217H0v.082h.473V0z"/></symbol><symbol id="ai"><path d="M.006.56v.1h.1v-.1h-.1m0-.418v.1h.1v-.1a.176.176 0 0 0-.02-.09A.127.127 0 0 0 .024 0L0 .038c.019.008.032.02.041.036a.151.151 0 0 1 .015.068h-.05z"/></symbol><use xlink:href="#v" transform="matrix(18 0 0 -18 232.577 79.969)"/><use xlink:href="#f" transform="matrix(18 0 0 -18 235.382 79.969)"/><use xlink:href="#ah" transform="matrix(18 0 0 -18 241.384 76.304)"/><use xlink:href="#f" transform="matrix(18 0 0 -18 250.882 79.969)"/><use xlink:href="#D" transform="matrix(18 0 0 -18 256.63 80.189)"/><use xlink:href="#ai" transform="matrix(18 0 0 -18 267.376 82.518)"/><use xlink:href="#f" transform="matrix(18 0 0 -18 270.882 79.969)"/><use xlink:href="#n" transform="matrix(18 0 0 -18 277.174 79.969)" fill="#204a87"/><use xlink:href="#k" transform="matrix(18 0 0 -18 282.156 79.969)" fill="#204a87"/><use xlink:href="#m" transform="matrix(18 0 0 -18 292.154 80.18)" fill="#204a87"/><use xlink:href="#d" transform="matrix(18 0 0 -18 297.882 79.969)" fill="#204a87"/><use xlink:href="#ae" transform="matrix(18 0 0 -18 302.056 83.757)"/><use xlink:href="#ai" transform="matrix(18 0 0 -18 308.376 82.518)"/><path d="m936.222 33.019.155.024.139.071.111.111.071.139.024.155v72.594l-.024.154-.071.14-.111.11-.139.071-.155.025H464.587l-.154-.025-.14-.071-.11-.11-.071-.14-.025-.154V33.519l.025-.155.071-.139.11-.111.14-.071.154-.024h471.635zm-471.635 1 .5-.5v72.594l-.5-.5h471.635l-.5.5V33.519l.5.5H464.587" fill="#4874cb"/><symbol id="aj"><path d="M.209 0 0 .519h.144L.242.254.27.166.284.21.3.254l.098.265H.54L.333 0H.209z"/></symbol><use xlink:href="#aj" transform="matrix(18 0 0 -18 471.884 54.219)" fill="#204a87"/><use xlink:href="#o" transform="matrix(18 0 0 -18 482.508 54.43)" fill="#204a87"/><use xlink:href="#n" transform="matrix(18 0 0 -18 494.079 54.219)" fill="#204a87"/><use xlink:href="#Y" transform="matrix(18 0 0 -18 498.525 54.43)" fill="#204a87"/><use xlink:href="#d" transform="matrix(18 0 0 -18 508.787 54.219)" fill="#204a87"/><use xlink:href="#s" transform="matrix(18 0 0 -18 513.514 57.796)"/><use xlink:href="#s" transform="matrix(18 0 0 -18 523.514 57.796)"/><use xlink:href="#t" transform="matrix(18 0 0 -18 534.49 54.43)"/><use xlink:href="#u" transform="matrix(18 0 0 -18 543.938 54.219)"/><use xlink:href="#v" transform="matrix(18 0 0 -18 547.982 54.219)"/><use xlink:href="#w" transform="matrix(18 0 0 -18 551.973 54.219)"/><use xlink:href="#x" transform="matrix(18 0 0 -18 561.367 58.007)"/><use xlink:href="#s" transform="matrix(18 0 0 -18 570.514 57.796)"/><use xlink:href="#y" transform="matrix(18 0 0 -18 582.202 54.439)"/><use xlink:href="#w" transform="matrix(18 0 0 -18 594.973 54.219)"/><use xlink:href="#z" transform="matrix(18 0 0 -18 605.747 54.219)"/><use xlink:href="#A" transform="matrix(18 0 0 -18 614.56 55.221)"/><use xlink:href="#B" transform="matrix(18 0 0 -18 628.938 54.43)"/><use xlink:href="#C" transform="matrix(18 0 0 -18 638.543 54.448)"/><use xlink:href="#D" transform="matrix(18 0 0 -18 648.534 54.439)"/><use xlink:href="#f" transform="matrix(18 0 0 -18 657.787 54.219)"/><use xlink:href="#I" transform="matrix(18 0 0 -18 663.877 58.007)"/><use xlink:href="#aj" transform="matrix(18 0 0 -18 668.884 54.219)" fill="#204a87"/><use xlink:href="#o" transform="matrix(18 0 0 -18 679.508 54.43)" fill="#204a87"/><use xlink:href="#n" transform="matrix(18 0 0 -18 691.079 54.219)" fill="#204a87"/><use xlink:href="#Y" transform="matrix(18 0 0 -18 695.525 54.43)" fill="#204a87"/><use xlink:href="#d" transform="matrix(18 0 0 -18 705.787 54.219)" fill="#204a87"/><symbol id="ak"><path d="M.106 0 .032.057a1.238 1.238 0 0 0 .093.094A1.361 1.361 0 0 0 0 .183l.029.086A.748.748 0 0 0 .143.21a.93.93 0 0 0-.012.13h.087C.218.318.214.274.205.211l.042.018.081.035.026-.089A2.208 2.208 0 0 0 .229.151L.287.085.315.053.24.003l-.066.11A2.183 2.183 0 0 0 .106 0z"/></symbol><use xlink:href="#ak" transform="matrix(18 0 0 -18 711.033 47.258)" fill="#204a87"/><use xlink:href="#F" transform="matrix(18 0 0 -18 718.015 54.219)"/><use xlink:href="#R" transform="matrix(18 0 0 -18 727.973 57.796)"/><use xlink:href="#S" transform="matrix(18 0 0 -18 737.683 54.439)"/><use xlink:href="#u" transform="matrix(18 0 0 -18 750.938 54.219)"/><use xlink:href="#v" transform="matrix(18 0 0 -18 754.982 54.219)"/><use xlink:href="#w" transform="matrix(18 0 0 -18 758.973 54.219)"/><use xlink:href="#x" transform="matrix(18 0 0 -18 768.367 58.007)"/><use xlink:href="#T" transform="matrix(18 0 0 -18 777.866 54.219)"/><use xlink:href="#U" transform="matrix(18 0 0 -18 789.087 54.43)"/><use xlink:href="#u" transform="matrix(18 0 0 -18 799.588 54.219)"/><use xlink:href="#B" transform="matrix(18 0 0 -18 803.588 54.43)"/><use xlink:href="#V" transform="matrix(18 0 0 -18 813.096 54.43)"/><use xlink:href="#f" transform="matrix(18 0 0 -18 822.437 54.219)"/><use xlink:href="#K" transform="matrix(18 0 0 -18 828.527 58.007)"/><use xlink:href="#f" transform="matrix(18 0 0 -18 833.437 54.219)"/><symbol id="al"><path d="M0 .51c.025 0 .045.007.061.02.016.012.027.03.032.053C.098.605.1.643.1.698c0 .054.001.09.003.107A.21.21 0 0 0 .12.871c.008.017.018.03.03.04.012.01.027.017.045.023a.264.264 0 0 0 .06.004h.028V.862H.268C.234.862.21.856.2.843.19.831.184.804.184.762.184.676.182.622.178.6a.183.183 0 0 0-.03-.08.176.176 0 0 0-.066-.05A.148.148 0 0 0 .159.4.342.342 0 0 0 .184.25c0-.064 0-.102.002-.114C.188.114.195.1.206.09.215.08.235.077.267.077h.015V0H.255a.221.221 0 0 0-.069.008.115.115 0 0 0-.052.036.131.131 0 0 0-.027.064.986.986 0 0 0-.006.126c0 .059-.003.1-.008.122A.094.094 0 0 1 .06.409.096.096 0 0 1 0 .43v.08z"/></symbol><use xlink:href="#al" transform="matrix(18 0 0 -18 838.938 58.007)"/><use xlink:href="#f" transform="matrix(18 0 0 -18 844.437 54.219)"/><use xlink:href="#f" transform="matrix(18 0 0 -18 471.787 75.819)"/><use xlink:href="#f" transform="matrix(18 0 0 -18 476.787 75.819)"/><use xlink:href="#f" transform="matrix(18 0 0 -18 481.787 75.819)"/><use xlink:href="#f" transform="matrix(18 0 0 -18 486.787 75.819)"/><use xlink:href="#f" transform="matrix(18 0 0 -18 491.787 75.819)"/><use xlink:href="#f" transform="matrix(18 0 0 -18 496.787 75.819)"/><use xlink:href="#f" transform="matrix(18 0 0 -18 501.787 75.819)"/><use xlink:href="#f" transform="matrix(18 0 0 -18 506.787 75.819)"/><use xlink:href="#n" transform="matrix(18 0 0 -18 513.079 75.819)" fill="#204a87"/><use xlink:href="#k" transform="matrix(18 0 0 -18 518.061 75.819)" fill="#204a87"/><use xlink:href="#m" transform="matrix(18 0 0 -18 528.06 76.03)" fill="#204a87"/><use xlink:href="#d" transform="matrix(18 0 0 -18 533.787 75.819)" fill="#204a87"/><use xlink:href="#v" transform="matrix(18 0 0 -18 539.982 75.819)"/><use xlink:href="#f" transform="matrix(18 0 0 -18 542.787 75.819)"/><use xlink:href="#ah" transform="matrix(18 0 0 -18 548.789 72.154)"/><use xlink:href="#f" transform="matrix(18 0 0 -18 558.287 75.819)"/><use xlink:href="#D" transform="matrix(18 0 0 -18 564.034 76.039)"/><use xlink:href="#ai" transform="matrix(18 0 0 -18 574.781 78.368)"/><use xlink:href="#f" transform="matrix(18 0 0 -18 578.287 75.819)"/><use xlink:href="#n" transform="matrix(18 0 0 -18 584.579 75.819)" fill="#204a87"/><use xlink:href="#k" transform="matrix(18 0 0 -18 589.561 75.819)" fill="#204a87"/><use xlink:href="#m" transform="matrix(18 0 0 -18 599.56 76.03)" fill="#204a87"/><use xlink:href="#d" transform="matrix(18 0 0 -18 605.287 75.819)" fill="#204a87"/><use xlink:href="#ae" transform="matrix(18 0 0 -18 609.46 79.607)"/><use xlink:href="#ai" transform="matrix(18 0 0 -18 615.781 78.368)"/><symbol id="am"><path d="M.283.51V.43A.098.098 0 0 1 .22.41.095.095 0 0 1 .19.355.588.588 0 0 1 .182.241C.182.187.18.151.179.134A.196.196 0 0 0 .162.068a.113.113 0 0 0-.03-.04.117.117 0 0 0-.044-.023A.241.241 0 0 0 .028 0H0v.077h.015c.034 0 .056.006.068.018.01.012.016.04.016.082C.1.26.101.31.104.332a.192.192 0 0 0 .03.086.151.151 0 0 0 .067.051.165.165 0 0 0-.079.071A.35.35 0 0 0 .1.69C.1.752.1.79.097.802.094.825.087.84.077.85.067.857.047.862.015.862H0v.076h.027a.221.221 0 0 0 .07-.007.112.112 0 0 0 .051-.036A.13.13 0 0 0 .175.83.908.908 0 0 0 .182.704C.182.646.185.605.19.583A.095.095 0 0 1 .22.53.098.098 0 0 1 .283.51z"/></symbol><use xlink:href="#am" transform="matrix(18 0 0 -18 472.2 101.207)"/><path d="m308.703 252.813.155.024.139.071.111.111.071.139.024.155v94.389l-.024.154-.071.14-.111.11-.139.071-.155.025H23.872l-.154-.025-.14-.071-.11-.11-.071-.14-.025-.154v-94.389l.025-.155.071-.139.11-.111.14-.071.154-.024h284.831zm-284.831 1 .5-.5v94.389l-.5-.5h284.831l-.5.5v-94.389l.5.5H23.872" fill="#4874cb"/><use xlink:href="#b" transform="matrix(18 0 0 -18 31.459 274.013)" fill="#ad7fa8"/><use xlink:href="#c" transform="matrix(18 0 0 -18 43.364 274.233)" fill="#ad7fa8"/><use xlink:href="#d" transform="matrix(18 0 0 -18 55.072 274.013)" fill="#ad7fa8"/><use xlink:href="#e" transform="matrix(18 0 0 -18 60.643 270.146)"/><use xlink:href="#f" transform="matrix(18 0 0 -18 66.072 274.013)"/><use xlink:href="#g" transform="matrix(18 0 0 -18 72.707 274.013)"/><use xlink:href="#g" transform="matrix(18 0 0 -18 77.707 274.013)"/><use xlink:href="#g" transform="matrix(18 0 0 -18 82.707 274.013)"/><use xlink:href="#f" transform="matrix(18 0 0 -18 31.072 295.613)"/><use xlink:href="#L" transform="matrix(18 0 0 -18 37.724 299.401)"/><use xlink:href="#e" transform="matrix(18 0 0 -18 41.343 291.746)"/><use xlink:href="#f" transform="matrix(18 0 0 -18 46.772 295.613)"/><use xlink:href="#Q" transform="matrix(18 0 0 -18 51.763 295.613)" fill="#ad7fa8"/><use xlink:href="#N" transform="matrix(18 0 0 -18 63.414 295.824)" fill="#ad7fa8"/><use xlink:href="#O" transform="matrix(18 0 0 -18 73.959 295.613)" fill="#ad7fa8"/><use xlink:href="#p" transform="matrix(18 0 0 -18 81.073 295.613)" fill="#ad7fa8"/><use xlink:href="#q" transform="matrix(18 0 0 -18 93.343 295.824)" fill="#ad7fa8"/><use xlink:href="#l" transform="matrix(18 0 0 -18 103.52 295.824)" fill="#ad7fa8"/><use xlink:href="#r" transform="matrix(18 0 0 -18 114.064 295.613)" fill="#ad7fa8"/><use xlink:href="#d" transform="matrix(18 0 0 -18 117.772 295.613)" fill="#ad7fa8"/><use xlink:href="#v" transform="matrix(18 0 0 -18 123.967 295.613)"/><use xlink:href="#f" transform="matrix(18 0 0 -18 126.772 295.613)"/><use xlink:href="#E" transform="matrix(18 0 0 -18 132.563 287.29)" fill="#204a87"/><use xlink:href="#v" transform="matrix(18 0 0 -18 136.417 295.613)" fill="#204a87"/><use xlink:href="#w" transform="matrix(18 0 0 -18 140.409 295.613)" fill="#204a87"/><use xlink:href="#aa" transform="matrix(18 0 0 -18 149.538 295.736)" fill="#204a87"/><use xlink:href="#f" transform="matrix(18 0 0 -18 154.222 295.613)" fill="#204a87"/><use xlink:href="#E" transform="matrix(18 0 0 -18 160.013 287.29)" fill="#204a87"/><use xlink:href="#f" transform="matrix(18 0 0 -18 162.672 295.613)" fill="#204a87"/><use xlink:href="#t" transform="matrix(18 0 0 -18 168.375 295.824)"/><use xlink:href="#v" transform="matrix(18 0 0 -18 177.867 295.613)"/><use xlink:href="#w" transform="matrix(18 0 0 -18 181.859 295.613)"/><use xlink:href="#v" transform="matrix(18 0 0 -18 191.867 295.613)"/><use xlink:href="#aa" transform="matrix(18 0 0 -18 194.988 295.736)"/><use xlink:href="#f" transform="matrix(18 0 0 -18 31.072 317.213)"/><use xlink:href="#L" transform="matrix(18 0 0 -18 37.724 321.001)"/><use xlink:href="#f" transform="matrix(18 0 0 -18 40.772 317.213)"/><use xlink:href="#f" transform="matrix(18 0 0 -18 45.772 317.213)"/><use xlink:href="#f" transform="matrix(18 0 0 -18 50.772 317.213)"/><use xlink:href="#h" transform="matrix(18 0 0 -18 56.554 306.719)"/><use xlink:href="#e" transform="matrix(18 0 0 -18 62.343 313.346)"/><use xlink:href="#f" transform="matrix(18 0 0 -18 67.772 317.213)"/><use xlink:href="#ab" transform="matrix(18 0 0 -18 74.002 317.213)" fill="#ad7fa8"/><use xlink:href="#k" transform="matrix(18 0 0 -18 79.046 317.213)" fill="#ad7fa8"/><use xlink:href="#m" transform="matrix(18 0 0 -18 89.044 317.424)" fill="#ad7fa8"/><use xlink:href="#q" transform="matrix(18 0 0 -18 95.343 317.424)" fill="#ad7fa8"/><use xlink:href="#ac" transform="matrix(18 0 0 -18 105.51 321.001)" fill="#ad7fa8"/><use xlink:href="#q" transform="matrix(18 0 0 -18 116.343 317.424)" fill="#ad7fa8"/><use xlink:href="#O" transform="matrix(18 0 0 -18 126.959 317.213)" fill="#ad7fa8"/><use xlink:href="#ad" transform="matrix(18 0 0 -18 134.152 317.213)" fill="#ad7fa8"/><use xlink:href="#n" transform="matrix(18 0 0 -18 145.064 317.213)" fill="#ad7fa8"/><use xlink:href="#m" transform="matrix(18 0 0 -18 149.044 317.424)" fill="#ad7fa8"/><use xlink:href="#q" transform="matrix(18 0 0 -18 155.343 317.424)" fill="#ad7fa8"/><use xlink:href="#O" transform="matrix(18 0 0 -18 165.959 317.213)" fill="#ad7fa8"/><use xlink:href="#N" transform="matrix(18 0 0 -18 172.414 317.424)" fill="#ad7fa8"/><use xlink:href="#r" transform="matrix(18 0 0 -18 183.064 317.213)" fill="#ad7fa8"/><use xlink:href="#d" transform="matrix(18 0 0 -18 186.772 317.213)" fill="#ad7fa8"/><use xlink:href="#E" transform="matrix(18 0 0 -18 192.563 308.89)" fill="#204a87"/><use xlink:href="#v" transform="matrix(18 0 0 -18 196.417 317.213)" fill="#204a87"/><use xlink:href="#w" transform="matrix(18 0 0 -18 200.409 317.213)" fill="#204a87"/><use xlink:href="#aa" transform="matrix(18 0 0 -18 209.538 317.336)" fill="#204a87"/><use xlink:href="#f" transform="matrix(18 0 0 -18 214.222 317.213)" fill="#204a87"/><use xlink:href="#E" transform="matrix(18 0 0 -18 220.013 308.89)" fill="#204a87"/><use xlink:href="#f" transform="matrix(18 0 0 -18 222.672 317.213)" fill="#204a87"/><use xlink:href="#D" transform="matrix(18 0 0 -18 228.42 317.433)"/><use xlink:href="#f" transform="matrix(18 0 0 -18 31.072 338.813)"/><use xlink:href="#h" transform="matrix(18 0 0 -18 36.854 328.319)"/><use xlink:href="#e" transform="matrix(18 0 0 -18 42.643 334.946)"/><use xlink:href="#f" transform="matrix(18 0 0 -18 48.072 338.813)"/><use xlink:href="#Q" transform="matrix(18 0 0 -18 53.063 338.813)" fill="#ad7fa8"/><use xlink:href="#N" transform="matrix(18 0 0 -18 64.714 339.024)" fill="#ad7fa8"/><use xlink:href="#O" transform="matrix(18 0 0 -18 75.259 338.813)" fill="#ad7fa8"/><use xlink:href="#p" transform="matrix(18 0 0 -18 82.373 338.813)" fill="#ad7fa8"/><use xlink:href="#q" transform="matrix(18 0 0 -18 94.643 339.024)" fill="#ad7fa8"/><use xlink:href="#l" transform="matrix(18 0 0 -18 104.82 339.024)" fill="#ad7fa8"/><use xlink:href="#r" transform="matrix(18 0 0 -18 115.364 338.813)" fill="#ad7fa8"/><use xlink:href="#d" transform="matrix(18 0 0 -18 119.072 338.813)" fill="#ad7fa8"/><use xlink:href="#ae" transform="matrix(18 0 0 -18 123.246 342.601)"/><use xlink:href="#f" transform="matrix(18 0 0 -18 128.072 338.813)"/><use xlink:href="#E" transform="matrix(18 0 0 -18 133.863 330.49)" fill="#204a87"/><use xlink:href="#v" transform="matrix(18 0 0 -18 137.717 338.813)" fill="#204a87"/><use xlink:href="#w" transform="matrix(18 0 0 -18 141.709 338.813)" fill="#204a87"/><use xlink:href="#aa" transform="matrix(18 0 0 -18 150.838 338.936)" fill="#204a87"/><use xlink:href="#f" transform="matrix(18 0 0 -18 155.522 338.813)" fill="#204a87"/><use xlink:href="#E" transform="matrix(18 0 0 -18 161.313 330.49)" fill="#204a87"/><path d="m682.885 158.507-.5.5v-38.222h47.381v38.222l-.5-.5h24.597l-47.787 38.867-47.788-38.867h24.597zm-23.19 1 .316-.887 46.38 37.722h-.631l46.381-37.722.315.887h-23.69v-38.222l.5.5h-46.381l.5-.5v38.222h-23.69" fill="#2e54a1"/><symbol id="an"><path d="M0 .688a.99.99 0 0 1 .174.276L.242.945a2.23 2.23 0 0 0-.04-.079h.184v-.06L.314.7h.124V.112C.438.047.406.014.342.014.314.013.285.014.255.016a1.016 1.016 0 0 1-.01.065.82.82 0 0 1 .083-.005c.031 0 .047.015.047.046v.16H.287V.1H.224v.18H.137A.508.508 0 0 0 .057 0a.375.375 0 0 1-.055.05.502.502 0 0 1 .072.286v.332A1.49 1.49 0 0 0 .047.635.556.556 0 0 1 0 .688M.469.272h.23v.141H.581A1.472 1.472 0 0 0 .537.308a.382.382 0 0 1-.063.029C.51.415.539.494.56.574L.628.556A2.371 2.371 0 0 0 .604.479h.095v.106h.072V.479h.175V.413H.771v-.14H.97V.205H.77V.001H.7v.205H.47v.066m.01.641h.439a3.566 3.566 0 0 0-.01-.18C.904.654.862.614.782.614l-.1.003a1.21 1.21 0 0 1-.014.078.946.946 0 0 1 .11-.008c.035 0 .055.018.058.056l.007.104H.658A.349.349 0 0 0 .623.692.362.362 0 0 0 .491.563a.699.699 0 0 1-.047.063c.054.03.092.061.113.097.017.028.027.07.03.124H.478v.066M.099.701h.136l.072.106H.168A1.315 1.315 0 0 0 .099.7M.287.34h.088v.124H.287V.339m.088.305H.287V.52h.088v.123M.138.339h.086v.124H.138V.339m0 .182h.086v.123H.138V.52z"/></symbol><symbol id="ao"><path d="M.42.883c.16.002.322.016.482.042L.93.855a4.234 4.234 0 0 0-.434-.04V.596h.477V.525H.788v-.52H.713v.52H.495V.488C.495.277.441.114.334 0a.653.653 0 0 1-.05.064C.373.162.42.304.42.49v.394M0 .35C.068.45.119.564.153.693h-.14v.068h.142v.194h.072V.761H.36V.693H.227V.582L.263.61C.322.54.365.485.392.443L.332.398C.3.447.265.497.226.548V.007H.155v.502a.909.909 0 0 0-.12-.244L0 .35z"/></symbol><use xlink:href="#an" transform="matrix(15.95 0 0 -15.95 708.922 149.732)"/><use xlink:href="#ao" transform="matrix(15.95 0 0 -15.95 708.953 165.747)"/><symbol id="ap"><path d="M.27.526h.165l.02.138h-.14v.067h.148L.48.845H.293v.068h.633V.845H.553L.538.73h.307V.526h.122V.458H.27v.068M.355.357h.523V0H.805v.06H.429V0H.355v.357M.312.24C.313.206.316.178.318.156a2.207 2.207 0 0 1-.195-.14L.077.08C.1.101.11.131.11.17v.384H0v.07h.186V.151c.045.031.087.06.126.09m.493.048H.429V.128h.376v.161M.77.664H.528L.51.526H.77v.138M.1.944A7.14 7.14 0 0 0 .254.782L.186.725C.145.779.096.835.04.893L.1.944z"/></symbol><symbol id="aq"><path d="M.75.339A6.67 6.67 0 0 0 .952.045 3.94 3.94 0 0 1 .876 0L.822.088A37.3 37.3 0 0 1 .32.044L.284.129a.306.306 0 0 1 .12.114c.043.061.083.126.12.194H.268v.07h.306v.207H.315v.07h.26v.179h.077V.784h.27v-.07h-.27V.507H.97v-.07H.622A2.978 2.978 0 0 0 .41.127c.124.006.248.015.372.026-.033.053-.065.1-.095.145l.064.04M.145.418.222.385A17.45 17.45 0 0 1 .1.009L.017.037c.043.115.085.241.128.38m-.096.28C.098.663.155.618.22.564A5.1 5.1 0 0 0 .164.501 3.129 3.129 0 0 1 0 .641l.049.056M.087.95C.139.91.195.861.255.808a3.542 3.542 0 0 1-.058-.06 3.23 3.23 0 0 1-.16.148l.05.054z"/></symbol><symbol id="ar"><path d="m.377.674.107-.18c.032.09.052.189.06.297h-.23v.07h.305V.797A1.394 1.394 0 0 0 .53.414l.132-.23L.594.142.493.33a.928.928 0 0 0-.19-.257.969.969 0 0 1-.045.069c.08.076.145.165.192.266a8.29 8.29 0 0 1-.132.229l.059.036M0 .344c.06.1.105.217.137.353H.015v.067h.128v.199h.07v-.2h.105V.698H.213V.542l.036.034C.284.544.316.511.348.478L.298.43a1.2 1.2 0 0 1-.085.096V0h-.07v.53A1.006 1.006 0 0 0 .03.26.666.666 0 0 1 0 .345m.637.413h.177v.2h.073v-.2h.092V.689H.887V.141C.887.06.847.02.767.02H.664A.714.714 0 0 1 .648.1C.691.097.726.095.753.095c.04 0 .061.018.061.055v.54H.637v.069M.609.562.67.59C.702.526.733.46.76.394L.697.36a2.25 2.25 0 0 1-.088.2z"/></symbol><use xlink:href="#ap" transform="matrix(15.95 0 0 -15.95 689.784 141.67)"/><use xlink:href="#aq" transform="matrix(15.95 0 0 -15.95 689.753 157.716)"/><use xlink:href="#ar" transform="matrix(15.95 0 0 -15.95 689.66 173.732)"/><path d="m98.274 57.098-.5.5V40.359l33.271 33.271-33.271 33.271V89.662l.5.5H54.022V57.098h44.252zm-43.752 1 .5-.5v32.064l-.5-.5h44.252v16.532l-.853-.354 32.063-32.064v.707L97.921 41.92l.853-.354v16.532H54.522" fill="#2e54a1"/><symbol id="as"><path d="M.082.481H.17V.66h.064V.481h.094V.417H.234V.283L.34.3A1.028 1.028 0 0 1 .333.23L.234.218V0H.17v.208A15.867 15.867 0 0 1 .01.184L0 .254l.17.02v.143H.014v.067c.024.07.05.159.077.266H.005v.063h.101C.118.859.13.91.141.963L.21.947.176.813h.177V.75H.159A8.132 8.132 0 0 0 .082.481M.424.002H.36v.575h.26v-.48C.621.039.595.01.542.01H.466L.452.073A.96.96 0 0 1 .523.07C.547.07.56.082.56.11v.113H.424v-.22m.282.954L.69.935A.652.652 0 0 1 .976.688.586.586 0 0 1 .925.621a.82.82 0 0 0-.123.084V.656h-.34V.7a1.207 1.207 0 0 0-.12-.088.538.538 0 0 1-.051.06c.13.075.234.17.313.285h.102M.852.595h.066V.119C.918.047.888.01.826.01.793.01.755.01.712.013a.759.759 0 0 1-.014.073.856.856 0 0 1 .106-.008c.032 0 .048.017.048.05v.468m-.21.289A1.278 1.278 0 0 0 .483.718h.303a.803.803 0 0 0-.144.166m.06-.336h.063V.192H.702v.356M.424.276h.135V.37H.424V.276m.135.242H.424V.425h.135v.093z"/></symbol><symbol id="at"><path d="m.272.879.065.046C.41.88.49.765.577.579.7.313.831.15.974.092L.905.006C.763.09.631.269.51.54L.48.604A1.08 1.08 0 0 0 .06 0 .533.533 0 0 1 0 .073c.211.133.354.344.427.632A.488.488 0 0 1 .272.88z"/></symbol><use xlink:href="#as" transform="matrix(15.95 0 0 -15.95 68.621 81.155)"/><use xlink:href="#at" transform="matrix(15.95 0 0 -15.95 84.59 80.688)"/><path d="m423.679 57.098-.5.5V40.359L456.45 73.63l-33.271 33.271V89.662l.5.5h-58.091V57.098h58.091zm-57.591 1 .5-.5v32.064l-.5-.5h58.091v16.532l-.853-.354 32.064-32.064v.707L423.326 41.92l.853-.354v16.532h-58.091" fill="#2e54a1"/><symbol id="au"><path d="M.25.932.33.91A1.963 1.963 0 0 0 .285.812h.563A7.503 7.503 0 0 0 .832.329C.824.221.771.167.671.168.645.168.599.169.532.172l-.015.08C.57.249.618.246.66.246c.06 0 .091.031.096.095C.763.423.768.556.77.74H.249a1.475 1.475 0 0 0-.073-.12h.406V.336H.229V.152c0-.051.027-.077.08-.077h.456c.061 0 .098.02.108.06a.9.9 0 0 1 .023.143A1.33 1.33 0 0 1 .975.25 1.345 1.345 0 0 0 .949.108C.933.036.878 0 .783 0h-.49C.198 0 .15.046.15.139v.444A1.45 1.45 0 0 0 .05.459.4.4 0 0 1 0 .527C.113.65.197.785.25.932M.506.555H.229V.402h.277v.153z"/></symbol><symbol id="av"><path d="M.565.174V.097A3.646 3.646 0 0 1 .358.032.607.607 0 0 1 .288 0L.245.06C.261.073.27.095.27.127v.076A1.47 1.47 0 0 0 .044.098.536.536 0 0 1 0 .167c.174.056.311.13.412.225h-.4V.46H.47a1.554 1.554 0 0 1-.046.07l.062.038.062-.09L.517.46h.45V.392H.524A.45.45 0 0 1 .63.254C.702.29.774.326.845.365l.04-.071A6.306 6.306 0 0 1 .689.21.72.72 0 0 1 .973.114 3.923 3.923 0 0 1 .919.041a.618.618 0 0 0-.452.311A.94.94 0 0 0 .34.248V.105C.418.127.493.15.565.174M.43.64H.64v.13H.395v.067H.64V.97h.073V.838h.252V.77H.714V.64h.219V.573H.429v.068m-.15.33H.35v-.45H.278v.15L.058.543a1.1 1.1 0 0 1-.04.072c.092.047.18.094.26.14v.217M.044.875l.052.05C.155.878.2.839.229.809L.171.75C.124.801.08.842.044.875z"/></symbol><symbol id="aw"><path d="M.038.538h.395c.01.024.016.053.02.085l.07-.01A.44.44 0 0 0 .504.538h.213a1.516 1.516 0 0 1-.082.056l.04.044C.719.612.757.587.792.562L.77.538h.182V.474H.575C.65.4.784.365.975.369a.97.97 0 0 1-.04-.075 1.899 1.899 0 0 0-.05.004V0H.818v.054H.608V0H.54v.302h.311C.665.328.546.385.494.473H.477C.44.397.322.34.122.304h.313V0H.366v.053H.16V0H.092v.297a4.264 4.264 0 0 0-.054-.01C.028.307.016.33 0 .357c.217.027.348.067.392.117H.038v.064M.54.894h.346V.605H.816V.64H.607V.61H.54v.284m-.448 0h.343V.609H.365v.03H.16V.6H.091v.295M.816.833H.607V.7h.21v.133m-.452 0H.16V.7h.206v.133m.452-.59H.608V.113h.21v.128m-.452 0H.16V.114h.206v.128z"/></symbol><use xlink:href="#au" transform="matrix(15.95 0 0 -15.95 379.044 80.563)"/><use xlink:href="#av" transform="matrix(15.95 0 0 -15.95 395.09 81.17)"/><use xlink:href="#aw" transform="matrix(15.95 0 0 -15.95 411.028 80.875)"/><path d="M350.178 272.392v17.239l-.5-.5h72.539v33.063h-72.539l.5-.5v17.239l-33.27-33.271 33.27-33.27zm-32.21 33.624v-.707l32.064 32.064-.854.353v-16.532h72.539l-.5.5v-32.063l.5.5h-72.539v-16.532l.854.353-32.064 32.064" fill="#2e54a1"/><symbol id="ax"><path d="M.389.92h.487V.536h-.07v.028H.459V.535h-.07v.386M.236.046a.455.455 0 0 1 .155.33h.073a.73.73 0 0 0-.02-.128A.306.306 0 0 1 .605.12v.294H.304V.48h.658V.414H.679v-.11h.245V.243H.679V.104C.723.1.82.1.974.105A2.804 2.804 0 0 1 .95.033 3.351 3.351 0 0 0 .71.036C.578.038.482.084.42.175A.48.48 0 0 0 .3 0a.542.542 0 0 1-.064.046M0 .446a4.2 4.2 0 0 1 .126.057V.71H.008v.066h.118V.96H.2V.777h.125V.711H.2V.539c.038.019.075.038.112.059L.32.52.2.46V.12C.2.055.176.021.128.016A.91.91 0 0 0 .014.014 3.016 3.016 0 0 1 0 .094.866.866 0 0 1 .093.09C.115.089.126.1.126.125v.296A9.72 9.72 0 0 1 .01.361L0 .445m.459.18h.347v.086H.459V.626m.347.232H.459V.773h.347v.085z"/></symbol><symbol id="ay"><path d="m0 .23.088.01v.605H.015v.068h.478V.88H.92V.817C.882.577.826.4.753.287A.672.672 0 0 1 .975.084a.707.707 0 0 1-.06-.072.993.993 0 0 0-.206.213A1.053 1.053 0 0 0 .475 0a1.104 1.104 0 0 1-.05.062V0H.352v.211A29.563 29.563 0 0 1 .01.157L0 .23m.485.584v.032h-.06V.29l.111.018A.95.95 0 0 1 .533.24 20.335 20.335 0 0 1 .425.224V.066a.815.815 0 0 1 .241.22C.591.407.542.583.521.813H.485m.362 0H.592C.607.623.647.47.71.352c.057.096.102.25.136.46M.352.278v.143h-.19V.25l.19.027m-.19.205h.19v.15h-.19v-.15m0 .212h.19v.15h-.19v-.15z"/></symbol><symbol id="az"><path d="M.134.55h.722V.23H.78v.045H.203A.444.444 0 0 0 .053 0L0 .066c.09.07.134.175.134.318V.55M.103.697h.354v.097H.021V.86h.436v.103h.08V.86h.43V.794h-.43V.697h.352V.63H.103v.067M.78.484H.533V.342H.78v.142m-.57 0V.342h.247v.142H.211z"/></symbol><symbol id="aA"><path d="M.293 0a.577.577 0 0 1-.064.06C.31.13.361.2.387.27a.923.923 0 0 1 .037.306V.92h.429V.129C.853.05.815.013.74.013c-.046 0-.101 0-.166.003a1.31 1.31 0 0 1-.014.08A2.7 2.7 0 0 1 .716.09c.04 0 .06.019.06.057v.19H.483A.58.58 0 0 0 .293 0M0 .889h.306V.225H.073V.153H0V.89M.494.407h.281v.186H.501C.501.526.499.463.494.407m.281.44H.501V.663h.274v.184M.232.296v.23H.073v-.23h.16m0 .521h-.16V.595h.16v.222z"/></symbol><use xlink:href="#ax" transform="matrix(15.95 0 0 -15.95 345.848 313.157)"/><use xlink:href="#ay" transform="matrix(15.95 0 0 -15.95 361.864 313.095)"/><use xlink:href="#az" transform="matrix(15.95 0 0 -15.95 377.895 313.157)"/><use xlink:href="#aA" transform="matrix(15.95 0 0 -15.95 394.83 313.204)"/></g></svg>